<mxfile host="drawio-plugin" modified="2023-11-09T01:41:04.041Z" agent="5.0 (Windows NT 10.0; Win64; x64) AppleWebKit/537.36 (KHTML, like Gecko) Chrome/111.0.0.0 Safari/537.36" etag="gZTWqOd-CFU5UUH90e7j" version="20.5.3" type="embed"><diagram id="C5RBs43oDa-KdzZeNtuy" name="Page-1"><mxGraphModel dx="5882" dy="1158" grid="1" gridSize="10" guides="1" tooltips="1" connect="1" arrows="1" fold="1" page="1" pageScale="1" pageWidth="827" pageHeight="1169" math="0" shadow="0"><root><mxCell id="WIyWlLk6GJQsqaUBKTNV-0"/><mxCell id="WIyWlLk6GJQsqaUBKTNV-1" parent="WIyWlLk6GJQsqaUBKTNV-0"/><mxCell id="dDIwDJEJSTGHqXr8lB01-47" value="" style="shape=folder;fontStyle=1;spacingTop=10;tabWidth=40;tabHeight=20;tabPosition=left;html=1;whiteSpace=wrap;" parent="WIyWlLk6GJQsqaUBKTNV-1" vertex="1"><mxGeometry x="-4330" y="670" width="5460" height="490" as="geometry"/></mxCell><mxCell id="dDIwDJEJSTGHqXr8lB01-43" value="" style="shape=folder;fontStyle=1;spacingTop=10;tabWidth=40;tabHeight=20;tabPosition=left;html=1;whiteSpace=wrap;" parent="WIyWlLk6GJQsqaUBKTNV-1" vertex="1"><mxGeometry x="-4330" y="190" width="5460" height="460" as="geometry"/></mxCell><mxCell id="dDIwDJEJSTGHqXr8lB01-5" style="edgeStyle=orthogonalEdgeStyle;rounded=0;orthogonalLoop=1;jettySize=auto;html=1;dashed=1;exitX=0.5;exitY=0;exitDx=0;exitDy=0;" parent="WIyWlLk6GJQsqaUBKTNV-1" source="qvqpCW7Pz-lQNfFqi8u_-4" target="dDIwDJEJSTGHqXr8lB01-2" edge="1"><mxGeometry relative="1" as="geometry"/></mxCell><mxCell id="qvqpCW7Pz-lQNfFqi8u_-4" value="CardPile" style="swimlane;fontStyle=0;childLayout=stackLayout;horizontal=1;startSize=26;fillColor=none;horizontalStack=0;resizeParent=1;resizeParentMax=0;resizeLast=0;collapsible=1;marginBottom=0;whiteSpace=wrap;html=1;" parent="WIyWlLk6GJQsqaUBKTNV-1" vertex="1"><mxGeometry x="250" y="500" width="150" height="52" as="geometry"/></mxCell><mxCell id="qvqpCW7Pz-lQNfFqi8u_-5" value="- pile: Stack&amp;lt;Card&amp;gt;" style="text;strokeColor=none;fillColor=none;align=left;verticalAlign=top;spacingLeft=4;spacingRight=4;overflow=hidden;rotatable=0;points=[[0,0.5],[1,0.5]];portConstraint=eastwest;whiteSpace=wrap;html=1;" parent="qvqpCW7Pz-lQNfFqi8u_-4" vertex="1"><mxGeometry y="26" width="150" height="26" as="geometry"/></mxCell><mxCell id="dDIwDJEJSTGHqXr8lB01-6" style="edgeStyle=orthogonalEdgeStyle;rounded=0;orthogonalLoop=1;jettySize=auto;html=1;dashed=1;exitX=0.5;exitY=0;exitDx=0;exitDy=0;" parent="WIyWlLk6GJQsqaUBKTNV-1" source="qvqpCW7Pz-lQNfFqi8u_-8" target="qvqpCW7Pz-lQNfFqi8u_-4" edge="1"><mxGeometry relative="1" as="geometry"/></mxCell><mxCell id="qvqpCW7Pz-lQNfFqi8u_-8" value="DeckService" style="swimlane;fontStyle=0;childLayout=stackLayout;horizontal=1;startSize=26;fillColor=none;horizontalStack=0;resizeParent=1;resizeParentMax=0;resizeLast=0;collapsible=1;marginBottom=0;whiteSpace=wrap;html=1;" parent="WIyWlLk6GJQsqaUBKTNV-1" vertex="1"><mxGeometry x="53" y="700" width="140" height="104" as="geometry"/></mxCell><mxCell id="qvqpCW7Pz-lQNfFqi8u_-9" value="- deck: CardPile" style="text;strokeColor=none;fillColor=none;align=left;verticalAlign=top;spacingLeft=4;spacingRight=4;overflow=hidden;rotatable=0;points=[[0,0.5],[1,0.5]];portConstraint=eastwest;whiteSpace=wrap;html=1;" parent="qvqpCW7Pz-lQNfFqi8u_-8" vertex="1"><mxGeometry y="26" width="140" height="26" as="geometry"/></mxCell><mxCell id="qvqpCW7Pz-lQNfFqi8u_-10" value="+ DrawFromTop(): void" style="text;strokeColor=none;fillColor=none;align=left;verticalAlign=top;spacingLeft=4;spacingRight=4;overflow=hidden;rotatable=0;points=[[0,0.5],[1,0.5]];portConstraint=eastwest;whiteSpace=wrap;html=1;" parent="qvqpCW7Pz-lQNfFqi8u_-8" vertex="1"><mxGeometry y="52" width="140" height="26" as="geometry"/></mxCell><mxCell id="qvqpCW7Pz-lQNfFqi8u_-11" value="+ Shuffle(): void" style="text;strokeColor=none;fillColor=none;align=left;verticalAlign=top;spacingLeft=4;spacingRight=4;overflow=hidden;rotatable=0;points=[[0,0.5],[1,0.5]];portConstraint=eastwest;whiteSpace=wrap;html=1;" parent="qvqpCW7Pz-lQNfFqi8u_-8" vertex="1"><mxGeometry y="78" width="140" height="26" as="geometry"/></mxCell><mxCell id="dDIwDJEJSTGHqXr8lB01-7" style="edgeStyle=orthogonalEdgeStyle;rounded=0;orthogonalLoop=1;jettySize=auto;html=1;dashed=1;" parent="WIyWlLk6GJQsqaUBKTNV-1" source="qvqpCW7Pz-lQNfFqi8u_-16" target="qvqpCW7Pz-lQNfFqi8u_-4" edge="1"><mxGeometry relative="1" as="geometry"/></mxCell><mxCell id="qvqpCW7Pz-lQNfFqi8u_-16" value="DiscardPileService" style="swimlane;fontStyle=0;childLayout=stackLayout;horizontal=1;startSize=26;fillColor=none;horizontalStack=0;resizeParent=1;resizeParentMax=0;resizeLast=0;collapsible=1;marginBottom=0;whiteSpace=wrap;html=1;" parent="WIyWlLk6GJQsqaUBKTNV-1" vertex="1"><mxGeometry x="210" y="700" width="140" height="78" as="geometry"/></mxCell><mxCell id="qvqpCW7Pz-lQNfFqi8u_-17" value="- discardPile:&amp;nbsp; CardPile" style="text;strokeColor=none;fillColor=none;align=left;verticalAlign=top;spacingLeft=4;spacingRight=4;overflow=hidden;rotatable=0;points=[[0,0.5],[1,0.5]];portConstraint=eastwest;whiteSpace=wrap;html=1;" parent="qvqpCW7Pz-lQNfFqi8u_-16" vertex="1"><mxGeometry y="26" width="140" height="26" as="geometry"/></mxCell><mxCell id="qvqpCW7Pz-lQNfFqi8u_-19" value="+ AddToPile(Card): void" style="text;strokeColor=none;fillColor=none;align=left;verticalAlign=top;spacingLeft=4;spacingRight=4;overflow=hidden;rotatable=0;points=[[0,0.5],[1,0.5]];portConstraint=eastwest;whiteSpace=wrap;html=1;" parent="qvqpCW7Pz-lQNfFqi8u_-16" vertex="1"><mxGeometry y="52" width="140" height="26" as="geometry"/></mxCell><mxCell id="9NOFG1vIKV7tSebcZaDs-65" style="edgeStyle=orthogonalEdgeStyle;rounded=0;orthogonalLoop=1;jettySize=auto;html=1;dashed=1;exitX=1;exitY=0.5;exitDx=0;exitDy=0;" parent="WIyWlLk6GJQsqaUBKTNV-1" edge="1"><mxGeometry relative="1" as="geometry"><mxPoint x="1390" y="862" as="sourcePoint"/><mxPoint x="203" y="382" as="targetPoint"/><Array as="points"><mxPoint x="1390" y="852"/><mxPoint x="1460" y="852"/><mxPoint x="1460" y="382"/></Array></mxGeometry></mxCell><mxCell id="qvqpCW7Pz-lQNfFqi8u_-26" value="CardVaultRepository" style="swimlane;fontStyle=0;childLayout=stackLayout;horizontal=1;startSize=30;fillColor=none;horizontalStack=0;resizeParent=1;resizeParentMax=0;resizeLast=0;collapsible=1;marginBottom=0;whiteSpace=wrap;html=1;" parent="WIyWlLk6GJQsqaUBKTNV-1" vertex="1"><mxGeometry x="1190" y="830" width="200" height="60" as="geometry"><mxRectangle x="620" y="30" width="150" height="30" as="alternateBounds"/></mxGeometry></mxCell><mxCell id="qvqpCW7Pz-lQNfFqi8u_-29" value="- LoadFromPath(): HashSet&amp;lt;Card&amp;gt;" style="text;html=1;align=center;verticalAlign=middle;resizable=0;points=[];autosize=1;strokeColor=none;fillColor=none;" parent="qvqpCW7Pz-lQNfFqi8u_-26" vertex="1"><mxGeometry y="30" width="200" height="30" as="geometry"/></mxCell><mxCell id="dDIwDJEJSTGHqXr8lB01-4" style="edgeStyle=orthogonalEdgeStyle;rounded=0;orthogonalLoop=1;jettySize=auto;html=1;dashed=1;exitX=0.5;exitY=0;exitDx=0;exitDy=0;" parent="WIyWlLk6GJQsqaUBKTNV-1" source="qvqpCW7Pz-lQNfFqi8u_-32" target="dDIwDJEJSTGHqXr8lB01-2" edge="1"><mxGeometry relative="1" as="geometry"/></mxCell><mxCell id="qvqpCW7Pz-lQNfFqi8u_-32" value="PlayerHand" style="swimlane;fontStyle=0;childLayout=stackLayout;horizontal=1;startSize=26;fillColor=none;horizontalStack=0;resizeParent=1;resizeParentMax=0;resizeLast=0;collapsible=1;marginBottom=0;whiteSpace=wrap;html=1;" parent="WIyWlLk6GJQsqaUBKTNV-1" vertex="1"><mxGeometry x="-100" y="483" width="150" height="52" as="geometry"/></mxCell><mxCell id="qvqpCW7Pz-lQNfFqi8u_-33" value="- cards: List&amp;lt;Card&amp;gt;" style="text;strokeColor=none;fillColor=none;align=left;verticalAlign=top;spacingLeft=4;spacingRight=4;overflow=hidden;rotatable=0;points=[[0,0.5],[1,0.5]];portConstraint=eastwest;whiteSpace=wrap;html=1;" parent="qvqpCW7Pz-lQNfFqi8u_-32" vertex="1"><mxGeometry y="26" width="150" height="26" as="geometry"/></mxCell><mxCell id="9NOFG1vIKV7tSebcZaDs-73" style="edgeStyle=orthogonalEdgeStyle;rounded=0;orthogonalLoop=1;jettySize=auto;html=1;entryX=0.418;entryY=0.992;entryDx=0;entryDy=0;entryPerimeter=0;dashed=1;" parent="WIyWlLk6GJQsqaUBKTNV-1" source="qvqpCW7Pz-lQNfFqi8u_-35" target="qvqpCW7Pz-lQNfFqi8u_-33" edge="1"><mxGeometry relative="1" as="geometry"/></mxCell><mxCell id="9NOFG1vIKV7tSebcZaDs-74" style="edgeStyle=orthogonalEdgeStyle;rounded=0;orthogonalLoop=1;jettySize=auto;html=1;dashed=1;" parent="WIyWlLk6GJQsqaUBKTNV-1" source="qvqpCW7Pz-lQNfFqi8u_-35" target="dDIwDJEJSTGHqXr8lB01-23" edge="1"><mxGeometry relative="1" as="geometry"><Array as="points"><mxPoint x="-200" y="770"/><mxPoint x="-200" y="770"/></Array></mxGeometry></mxCell><mxCell id="qvqpCW7Pz-lQNfFqi8u_-35" value="PlayerHandService" style="swimlane;fontStyle=0;childLayout=stackLayout;horizontal=1;startSize=26;fillColor=none;horizontalStack=0;resizeParent=1;resizeParentMax=0;resizeLast=0;collapsible=1;marginBottom=0;whiteSpace=wrap;html=1;" parent="WIyWlLk6GJQsqaUBKTNV-1" vertex="1"><mxGeometry x="-120" y="700" width="155" height="270" as="geometry"/></mxCell><mxCell id="qvqpCW7Pz-lQNfFqi8u_-36" value="- playerHand: PlayerHand" style="text;strokeColor=none;fillColor=none;align=left;verticalAlign=top;spacingLeft=4;spacingRight=4;overflow=hidden;rotatable=0;points=[[0,0.5],[1,0.5]];portConstraint=eastwest;whiteSpace=wrap;html=1;" parent="qvqpCW7Pz-lQNfFqi8u_-35" vertex="1"><mxGeometry y="26" width="155" height="26" as="geometry"/></mxCell><mxCell id="qvqpCW7Pz-lQNfFqi8u_-37" value="+ PlayAtIndex(index: int): void" style="text;strokeColor=none;fillColor=none;align=left;verticalAlign=top;spacingLeft=4;spacingRight=4;overflow=hidden;rotatable=0;points=[[0,0.5],[1,0.5]];portConstraint=eastwest;whiteSpace=wrap;html=1;" parent="qvqpCW7Pz-lQNfFqi8u_-35" vertex="1"><mxGeometry y="52" width="155" height="38" as="geometry"/></mxCell><mxCell id="qvqpCW7Pz-lQNfFqi8u_-39" value="+ CanBePlayedAtIndex&lt;br&gt;(index: int): void" style="text;strokeColor=none;fillColor=none;align=left;verticalAlign=top;spacingLeft=4;spacingRight=4;overflow=hidden;rotatable=0;points=[[0,0.5],[1,0.5]];portConstraint=eastwest;whiteSpace=wrap;html=1;" parent="qvqpCW7Pz-lQNfFqi8u_-35" vertex="1"><mxGeometry y="90" width="155" height="40" as="geometry"/></mxCell><mxCell id="jd7sBL_ZRLo0PxZRcB78-33" value="+ DoubleEffectOfCardAt Index(index: int): void" style="text;strokeColor=none;fillColor=none;align=left;verticalAlign=top;spacingLeft=4;spacingRight=4;overflow=hidden;rotatable=0;points=[[0,0.5],[1,0.5]];portConstraint=eastwest;whiteSpace=wrap;html=1;" parent="qvqpCW7Pz-lQNfFqi8u_-35" vertex="1"><mxGeometry y="130" width="155" height="40" as="geometry"/></mxCell><mxCell id="jd7sBL_ZRLo0PxZRcB78-66" value="+ DecreaseTimeOfCardAt Index(index: int, amountTo Decrease: int): void" style="text;strokeColor=none;fillColor=none;align=left;verticalAlign=top;spacingLeft=4;spacingRight=4;overflow=hidden;rotatable=0;points=[[0,0.5],[1,0.5]];portConstraint=eastwest;whiteSpace=wrap;html=1;" parent="qvqpCW7Pz-lQNfFqi8u_-35" vertex="1"><mxGeometry y="170" width="155" height="60" as="geometry"/></mxCell><mxCell id="4" value="+ Draw(int amountToDraw): void" style="text;strokeColor=none;fillColor=none;align=left;verticalAlign=top;spacingLeft=4;spacingRight=4;overflow=hidden;rotatable=0;points=[[0,0.5],[1,0.5]];portConstraint=eastwest;whiteSpace=wrap;html=1;" vertex="1" parent="qvqpCW7Pz-lQNfFqi8u_-35"><mxGeometry y="230" width="155" height="40" as="geometry"/></mxCell><mxCell id="dDIwDJEJSTGHqXr8lB01-2" value="&lt;i style=&quot;border-color: var(--border-color);&quot;&gt;&amp;lt;&amp;lt;abstract&amp;gt;&amp;gt;&amp;nbsp;&lt;/i&gt;Card" style="swimlane;fontStyle=0;childLayout=stackLayout;horizontal=1;startSize=26;fillColor=none;horizontalStack=0;resizeParent=1;resizeParentMax=0;resizeLast=0;collapsible=1;marginBottom=0;whiteSpace=wrap;html=1;" parent="WIyWlLk6GJQsqaUBKTNV-1" vertex="1"><mxGeometry x="53" y="334" width="150" height="208" as="geometry"/></mxCell><mxCell id="dDIwDJEJSTGHqXr8lB01-10" value="- name: string" style="text;strokeColor=none;fillColor=none;align=left;verticalAlign=top;spacingLeft=4;spacingRight=4;overflow=hidden;rotatable=0;points=[[0,0.5],[1,0.5]];portConstraint=eastwest;whiteSpace=wrap;html=1;" parent="dDIwDJEJSTGHqXr8lB01-2" vertex="1"><mxGeometry y="26" width="150" height="26" as="geometry"/></mxCell><mxCell id="dDIwDJEJSTGHqXr8lB01-11" value="- sprite: Sprite" style="text;strokeColor=none;fillColor=none;align=left;verticalAlign=top;spacingLeft=4;spacingRight=4;overflow=hidden;rotatable=0;points=[[0,0.5],[1,0.5]];portConstraint=eastwest;whiteSpace=wrap;html=1;" parent="dDIwDJEJSTGHqXr8lB01-2" vertex="1"><mxGeometry y="52" width="150" height="26" as="geometry"/></mxCell><mxCell id="FwULBE35Prdf7N5nhsue-0" value="- class: CardClass" style="text;strokeColor=none;fillColor=none;align=left;verticalAlign=top;spacingLeft=4;spacingRight=4;overflow=hidden;rotatable=0;points=[[0,0.5],[1,0.5]];portConstraint=eastwest;whiteSpace=wrap;html=1;" parent="dDIwDJEJSTGHqXr8lB01-2" vertex="1"><mxGeometry y="78" width="150" height="26" as="geometry"/></mxCell><mxCell id="kyEuraz-bxoVGQhwH_C7-1" value="- effects: CardEffect[]" style="text;strokeColor=none;fillColor=none;align=left;verticalAlign=top;spacingLeft=4;spacingRight=4;overflow=hidden;rotatable=0;points=[[0,0.5],[1,0.5]];portConstraint=eastwest;whiteSpace=wrap;html=1;" parent="dDIwDJEJSTGHqXr8lB01-2" vertex="1"><mxGeometry y="104" width="150" height="26" as="geometry"/></mxCell><mxCell id="kyEuraz-bxoVGQhwH_C7-23" value="- cost: UnitTime" style="text;strokeColor=none;fillColor=none;align=left;verticalAlign=top;spacingLeft=4;spacingRight=4;overflow=hidden;rotatable=0;points=[[0,0.5],[1,0.5]];portConstraint=eastwest;whiteSpace=wrap;html=1;" parent="dDIwDJEJSTGHqXr8lB01-2" vertex="1"><mxGeometry y="130" width="150" height="26" as="geometry"/></mxCell><mxCell id="kyEuraz-bxoVGQhwH_C7-35" value="- rarity: Rarity" style="text;strokeColor=none;fillColor=none;align=left;verticalAlign=top;spacingLeft=4;spacingRight=4;overflow=hidden;rotatable=0;points=[[0,0.5],[1,0.5]];portConstraint=eastwest;whiteSpace=wrap;html=1;" parent="dDIwDJEJSTGHqXr8lB01-2" vertex="1"><mxGeometry y="156" width="150" height="26" as="geometry"/></mxCell><mxCell id="jd7sBL_ZRLo0PxZRcB78-32" value="+ DoubleEffect(): void" style="text;strokeColor=none;fillColor=none;align=left;verticalAlign=top;spacingLeft=4;spacingRight=4;overflow=hidden;rotatable=0;points=[[0,0.5],[1,0.5]];portConstraint=eastwest;whiteSpace=wrap;html=1;" parent="dDIwDJEJSTGHqXr8lB01-2" vertex="1"><mxGeometry y="182" width="150" height="26" as="geometry"/></mxCell><mxCell id="jd7sBL_ZRLo0PxZRcB78-43" style="edgeStyle=orthogonalEdgeStyle;rounded=0;orthogonalLoop=1;jettySize=auto;html=1;dashed=1;" parent="WIyWlLk6GJQsqaUBKTNV-1" source="dDIwDJEJSTGHqXr8lB01-23" target="jd7sBL_ZRLo0PxZRcB78-39" edge="1"><mxGeometry relative="1" as="geometry"><Array as="points"><mxPoint x="-270" y="618"/><mxPoint x="-185" y="618"/></Array></mxGeometry></mxCell><mxCell id="dDIwDJEJSTGHqXr8lB01-23" value="GameBoardService" style="swimlane;fontStyle=0;childLayout=stackLayout;horizontal=1;startSize=26;fillColor=none;horizontalStack=0;resizeParent=1;resizeParentMax=0;resizeLast=0;collapsible=1;marginBottom=0;whiteSpace=wrap;html=1;" parent="WIyWlLk6GJQsqaUBKTNV-1" vertex="1"><mxGeometry x="-455" y="700" width="225" height="190" as="geometry"/></mxCell><mxCell id="dDIwDJEJSTGHqXr8lB01-24" value="- board: GameBoard" style="text;strokeColor=none;fillColor=none;align=left;verticalAlign=top;spacingLeft=4;spacingRight=4;overflow=hidden;rotatable=0;points=[[0,0.5],[1,0.5]];portConstraint=eastwest;whiteSpace=wrap;html=1;" parent="dDIwDJEJSTGHqXr8lB01-23" vertex="1"><mxGeometry y="26" width="225" height="26" as="geometry"/></mxCell><mxCell id="dDIwDJEJSTGHqXr8lB01-25" value="+ AddCardToSlot(index: int): void" style="text;strokeColor=none;fillColor=none;align=left;verticalAlign=top;spacingLeft=4;spacingRight=4;overflow=hidden;rotatable=0;points=[[0,0.5],[1,0.5]];portConstraint=eastwest;whiteSpace=wrap;html=1;" parent="dDIwDJEJSTGHqXr8lB01-23" vertex="1"><mxGeometry y="52" width="225" height="28" as="geometry"/></mxCell><mxCell id="jd7sBL_ZRLo0PxZRcB78-57" value="+ IncreaseRemainCounterByAmount (amount: int): void" style="text;strokeColor=none;fillColor=none;align=left;verticalAlign=top;spacingLeft=4;spacingRight=4;overflow=hidden;rotatable=0;points=[[0,0.5],[1,0.5]];portConstraint=eastwest;whiteSpace=wrap;html=1;" parent="dDIwDJEJSTGHqXr8lB01-23" vertex="1"><mxGeometry y="80" width="225" height="40" as="geometry"/></mxCell><mxCell id="dDIwDJEJSTGHqXr8lB01-26" value="+ CanBeAddedToSlot AtIndex(index: int): void" style="text;strokeColor=none;fillColor=none;align=left;verticalAlign=top;spacingLeft=4;spacingRight=4;overflow=hidden;rotatable=0;points=[[0,0.5],[1,0.5]];portConstraint=eastwest;whiteSpace=wrap;html=1;" parent="dDIwDJEJSTGHqXr8lB01-23" vertex="1"><mxGeometry y="120" width="225" height="40" as="geometry"/></mxCell><mxCell id="jd7sBL_ZRLo0PxZRcB78-45" value="+ ExecuteAll(): void" style="text;strokeColor=none;fillColor=none;align=left;verticalAlign=top;spacingLeft=4;spacingRight=4;overflow=hidden;rotatable=0;points=[[0,0.5],[1,0.5]];portConstraint=eastwest;whiteSpace=wrap;html=1;" parent="dDIwDJEJSTGHqXr8lB01-23" vertex="1"><mxGeometry y="160" width="225" height="30" as="geometry"/></mxCell><mxCell id="dDIwDJEJSTGHqXr8lB01-46" value="Entity" style="text;html=1;strokeColor=none;fillColor=none;align=center;verticalAlign=middle;whiteSpace=wrap;rounded=0;" parent="WIyWlLk6GJQsqaUBKTNV-1" vertex="1"><mxGeometry x="-4326" y="189" width="40" height="20" as="geometry"/></mxCell><mxCell id="dDIwDJEJSTGHqXr8lB01-48" value="Service" style="text;html=1;align=center;verticalAlign=middle;resizable=0;points=[];autosize=1;strokeColor=none;fillColor=none;fontSize=10;" parent="WIyWlLk6GJQsqaUBKTNV-1" vertex="1"><mxGeometry x="-4339" y="665" width="60" height="30" as="geometry"/></mxCell><mxCell id="dDIwDJEJSTGHqXr8lB01-51" value="" style="shape=cylinder3;whiteSpace=wrap;html=1;boundedLbl=1;backgroundOutline=1;size=15;" parent="WIyWlLk6GJQsqaUBKTNV-1" vertex="1"><mxGeometry x="1260" y="750" width="60" height="80" as="geometry"/></mxCell><mxCell id="kyEuraz-bxoVGQhwH_C7-42" value="&lt;i&gt;&lt;span style=&quot;font-weight: normal;&quot;&gt;&amp;lt;&amp;lt;abstract&amp;gt;&amp;gt;&lt;/span&gt;&amp;nbsp;&lt;/i&gt;&lt;span style=&quot;font-weight: normal;&quot;&gt;CardEffect&lt;/span&gt;" style="swimlane;fontStyle=1;align=center;verticalAlign=top;childLayout=stackLayout;horizontal=1;startSize=26;horizontalStack=0;resizeParent=1;resizeParentMax=0;resizeLast=0;collapsible=1;marginBottom=0;whiteSpace=wrap;html=1;" parent="WIyWlLk6GJQsqaUBKTNV-1" vertex="1"><mxGeometry x="-450" y="333" width="180" height="150" as="geometry"><mxRectangle x="-450" y="143" width="140" height="30" as="alternateBounds"/></mxGeometry></mxCell><mxCell id="kyEuraz-bxoVGQhwH_C7-43" value="+ description: string&lt;br&gt;+ type: EffectType&lt;br&gt;+ isImmediate: bool" style="text;strokeColor=none;fillColor=none;align=left;verticalAlign=top;spacingLeft=4;spacingRight=4;overflow=hidden;rotatable=0;points=[[0,0.5],[1,0.5]];portConstraint=eastwest;whiteSpace=wrap;html=1;" parent="kyEuraz-bxoVGQhwH_C7-42" vertex="1"><mxGeometry y="26" width="180" height="54" as="geometry"/></mxCell><mxCell id="kyEuraz-bxoVGQhwH_C7-44" value="" style="line;strokeWidth=1;fillColor=none;align=left;verticalAlign=middle;spacingTop=-1;spacingLeft=3;spacingRight=3;rotatable=0;labelPosition=right;points=[];portConstraint=eastwest;strokeColor=inherit;" parent="kyEuraz-bxoVGQhwH_C7-42" vertex="1"><mxGeometry y="80" width="180" height="8" as="geometry"/></mxCell><mxCell id="kyEuraz-bxoVGQhwH_C7-45" value="+ abstract Execute(): void" style="text;strokeColor=none;fillColor=none;align=left;verticalAlign=top;spacingLeft=4;spacingRight=4;overflow=hidden;rotatable=0;points=[[0,0.5],[1,0.5]];portConstraint=eastwest;whiteSpace=wrap;html=1;" parent="kyEuraz-bxoVGQhwH_C7-42" vertex="1"><mxGeometry y="88" width="180" height="26" as="geometry"/></mxCell><mxCell id="jd7sBL_ZRLo0PxZRcB78-10" value="+ abstract ExecuteDoubled(): void" style="text;strokeColor=none;fillColor=none;align=left;verticalAlign=top;spacingLeft=4;spacingRight=4;overflow=hidden;rotatable=0;points=[[0,0.5],[1,0.5]];portConstraint=eastwest;whiteSpace=wrap;html=1;" parent="kyEuraz-bxoVGQhwH_C7-42" vertex="1"><mxGeometry y="114" width="180" height="36" as="geometry"/></mxCell><mxCell id="kyEuraz-bxoVGQhwH_C7-54" style="edgeStyle=orthogonalEdgeStyle;rounded=0;orthogonalLoop=1;jettySize=auto;html=1;entryX=1.012;entryY=0.752;entryDx=0;entryDy=0;entryPerimeter=0;dashed=1;" parent="WIyWlLk6GJQsqaUBKTNV-1" source="dDIwDJEJSTGHqXr8lB01-11" target="kyEuraz-bxoVGQhwH_C7-43" edge="1"><mxGeometry relative="1" as="geometry"/></mxCell><mxCell id="9NOFG1vIKV7tSebcZaDs-66" style="edgeStyle=orthogonalEdgeStyle;rounded=0;orthogonalLoop=1;jettySize=auto;html=1;entryX=0.463;entryY=0.981;entryDx=0;entryDy=0;entryPerimeter=0;dashed=1;" parent="WIyWlLk6GJQsqaUBKTNV-1" source="9NOFG1vIKV7tSebcZaDs-21" target="9NOFG1vIKV7tSebcZaDs-27" edge="1"><mxGeometry relative="1" as="geometry"/></mxCell><mxCell id="9NOFG1vIKV7tSebcZaDs-21" value="&lt;span style=&quot;font-weight: normal;&quot;&gt;CardVaultService&lt;/span&gt;" style="swimlane;fontStyle=1;align=center;verticalAlign=top;childLayout=stackLayout;horizontal=1;startSize=26;horizontalStack=0;resizeParent=1;resizeParentMax=0;resizeLast=0;collapsible=1;marginBottom=0;whiteSpace=wrap;html=1;" parent="WIyWlLk6GJQsqaUBKTNV-1" vertex="1"><mxGeometry x="541" y="856" width="290" height="104" as="geometry"/></mxCell><mxCell id="9NOFG1vIKV7tSebcZaDs-22" value="+ cardVault: CardVault&lt;br&gt;+ cardVaultRepository: CardVaultRepository" style="text;strokeColor=none;fillColor=none;align=left;verticalAlign=top;spacingLeft=4;spacingRight=4;overflow=hidden;rotatable=0;points=[[0,0.5],[1,0.5]];portConstraint=eastwest;whiteSpace=wrap;html=1;" parent="9NOFG1vIKV7tSebcZaDs-21" vertex="1"><mxGeometry y="26" width="290" height="44" as="geometry"/></mxCell><mxCell id="9NOFG1vIKV7tSebcZaDs-23" value="" style="line;strokeWidth=1;fillColor=none;align=left;verticalAlign=middle;spacingTop=-1;spacingLeft=3;spacingRight=3;rotatable=0;labelPosition=right;points=[];portConstraint=eastwest;strokeColor=inherit;" parent="9NOFG1vIKV7tSebcZaDs-21" vertex="1"><mxGeometry y="70" width="290" height="8" as="geometry"/></mxCell><mxCell id="9NOFG1vIKV7tSebcZaDs-24" value="+ SetCardVault(): void" style="text;strokeColor=none;fillColor=none;align=left;verticalAlign=top;spacingLeft=4;spacingRight=4;overflow=hidden;rotatable=0;points=[[0,0.5],[1,0.5]];portConstraint=eastwest;whiteSpace=wrap;html=1;" parent="9NOFG1vIKV7tSebcZaDs-21" vertex="1"><mxGeometry y="78" width="290" height="26" as="geometry"/></mxCell><mxCell id="9NOFG1vIKV7tSebcZaDs-80" style="edgeStyle=orthogonalEdgeStyle;rounded=0;orthogonalLoop=1;jettySize=auto;html=1;entryX=1.007;entryY=0.077;entryDx=0;entryDy=0;entryPerimeter=0;dashed=1;" parent="WIyWlLk6GJQsqaUBKTNV-1" source="9NOFG1vIKV7tSebcZaDs-26" edge="1"><mxGeometry relative="1" as="geometry"><mxPoint x="204.05000000000018" y="414.0020000000002" as="targetPoint"/><Array as="points"><mxPoint x="692" y="480"/><mxPoint x="204" y="480"/></Array></mxGeometry></mxCell><mxCell id="9NOFG1vIKV7tSebcZaDs-26" value="CardVault" style="swimlane;fontStyle=0;childLayout=stackLayout;horizontal=1;startSize=26;fillColor=none;horizontalStack=0;resizeParent=1;resizeParentMax=0;resizeLast=0;collapsible=1;marginBottom=0;whiteSpace=wrap;html=1;" parent="WIyWlLk6GJQsqaUBKTNV-1" vertex="1"><mxGeometry x="607" y="500" width="170" height="52" as="geometry"/></mxCell><mxCell id="9NOFG1vIKV7tSebcZaDs-27" value="- cards: HashSet&amp;lt;Card&amp;gt;" style="text;strokeColor=none;fillColor=none;align=left;verticalAlign=top;spacingLeft=4;spacingRight=4;overflow=hidden;rotatable=0;points=[[0,0.5],[1,0.5]];portConstraint=eastwest;whiteSpace=wrap;html=1;" parent="9NOFG1vIKV7tSebcZaDs-26" vertex="1"><mxGeometry y="26" width="170" height="26" as="geometry"/></mxCell><mxCell id="9NOFG1vIKV7tSebcZaDs-30" style="edgeStyle=orthogonalEdgeStyle;rounded=0;orthogonalLoop=1;jettySize=auto;html=1;shape=link;" parent="WIyWlLk6GJQsqaUBKTNV-1" source="9NOFG1vIKV7tSebcZaDs-22" target="qvqpCW7Pz-lQNfFqi8u_-29" edge="1"><mxGeometry relative="1" as="geometry"/></mxCell><mxCell id="9NOFG1vIKV7tSebcZaDs-77" style="edgeStyle=orthogonalEdgeStyle;rounded=0;orthogonalLoop=1;jettySize=auto;html=1;dashed=1;" parent="WIyWlLk6GJQsqaUBKTNV-1" source="9NOFG1vIKV7tSebcZaDs-31" edge="1"><mxGeometry relative="1" as="geometry"><mxPoint x="203" y="425.0476190476188" as="targetPoint"/><Array as="points"><mxPoint x="513" y="460"/><mxPoint x="203" y="460"/></Array></mxGeometry></mxCell><mxCell id="9NOFG1vIKV7tSebcZaDs-31" value="CardPool" style="swimlane;fontStyle=0;childLayout=stackLayout;horizontal=1;startSize=26;fillColor=none;horizontalStack=0;resizeParent=1;resizeParentMax=0;resizeLast=0;collapsible=1;marginBottom=0;whiteSpace=wrap;html=1;" parent="WIyWlLk6GJQsqaUBKTNV-1" vertex="1"><mxGeometry x="438" y="500" width="150" height="52" as="geometry"/></mxCell><mxCell id="9NOFG1vIKV7tSebcZaDs-32" value="- cards: List&amp;lt;Card&amp;gt;" style="text;strokeColor=none;fillColor=none;align=left;verticalAlign=top;spacingLeft=4;spacingRight=4;overflow=hidden;rotatable=0;points=[[0,0.5],[1,0.5]];portConstraint=eastwest;whiteSpace=wrap;html=1;" parent="9NOFG1vIKV7tSebcZaDs-31" vertex="1"><mxGeometry y="26" width="150" height="26" as="geometry"/></mxCell><mxCell id="9NOFG1vIKV7tSebcZaDs-41" style="edgeStyle=orthogonalEdgeStyle;rounded=0;orthogonalLoop=1;jettySize=auto;html=1;entryX=0.496;entryY=1.032;entryDx=0;entryDy=0;entryPerimeter=0;dashed=1;" parent="WIyWlLk6GJQsqaUBKTNV-1" source="9NOFG1vIKV7tSebcZaDs-33" target="9NOFG1vIKV7tSebcZaDs-32" edge="1"><mxGeometry relative="1" as="geometry"/></mxCell><mxCell id="9NOFG1vIKV7tSebcZaDs-33" value="&lt;span style=&quot;font-weight: normal;&quot;&gt;CardPoolService&lt;/span&gt;" style="swimlane;fontStyle=1;align=center;verticalAlign=top;childLayout=stackLayout;horizontal=1;startSize=26;horizontalStack=0;resizeParent=1;resizeParentMax=0;resizeLast=0;collapsible=1;marginBottom=0;whiteSpace=wrap;html=1;" parent="WIyWlLk6GJQsqaUBKTNV-1" vertex="1"><mxGeometry x="368" y="700" width="290" height="110" as="geometry"/></mxCell><mxCell id="9NOFG1vIKV7tSebcZaDs-34" value="+ cardPool:&amp;nbsp;CardPool" style="text;strokeColor=none;fillColor=none;align=left;verticalAlign=top;spacingLeft=4;spacingRight=4;overflow=hidden;rotatable=0;points=[[0,0.5],[1,0.5]];portConstraint=eastwest;whiteSpace=wrap;html=1;" parent="9NOFG1vIKV7tSebcZaDs-33" vertex="1"><mxGeometry y="26" width="290" height="24" as="geometry"/></mxCell><mxCell id="9NOFG1vIKV7tSebcZaDs-35" value="" style="line;strokeWidth=1;fillColor=none;align=left;verticalAlign=middle;spacingTop=-1;spacingLeft=3;spacingRight=3;rotatable=0;labelPosition=right;points=[];portConstraint=eastwest;strokeColor=inherit;" parent="9NOFG1vIKV7tSebcZaDs-33" vertex="1"><mxGeometry y="50" width="290" height="8" as="geometry"/></mxCell><mxCell id="9NOFG1vIKV7tSebcZaDs-36" value="+ AddCardToPool(card: Card): void" style="text;strokeColor=none;fillColor=none;align=left;verticalAlign=top;spacingLeft=4;spacingRight=4;overflow=hidden;rotatable=0;points=[[0,0.5],[1,0.5]];portConstraint=eastwest;whiteSpace=wrap;html=1;" parent="9NOFG1vIKV7tSebcZaDs-33" vertex="1"><mxGeometry y="58" width="290" height="26" as="geometry"/></mxCell><mxCell id="9NOFG1vIKV7tSebcZaDs-62" value="+ RemoveCardFromPool(card: Card): void" style="text;strokeColor=none;fillColor=none;align=left;verticalAlign=top;spacingLeft=4;spacingRight=4;overflow=hidden;rotatable=0;points=[[0,0.5],[1,0.5]];portConstraint=eastwest;whiteSpace=wrap;html=1;" parent="9NOFG1vIKV7tSebcZaDs-33" vertex="1"><mxGeometry y="84" width="290" height="26" as="geometry"/></mxCell><mxCell id="9NOFG1vIKV7tSebcZaDs-81" style="edgeStyle=orthogonalEdgeStyle;rounded=0;orthogonalLoop=1;jettySize=auto;html=1;entryX=1.001;entryY=0.69;entryDx=0;entryDy=0;entryPerimeter=0;dashed=1;" parent="WIyWlLk6GJQsqaUBKTNV-1" source="9NOFG1vIKV7tSebcZaDs-37" target="dDIwDJEJSTGHqXr8lB01-11" edge="1"><mxGeometry relative="1" as="geometry"/></mxCell><mxCell id="9NOFG1vIKV7tSebcZaDs-37" value="StarterDeck" style="swimlane;fontStyle=0;childLayout=stackLayout;horizontal=1;startSize=26;fillColor=none;horizontalStack=0;resizeParent=1;resizeParentMax=0;resizeLast=0;collapsible=1;marginBottom=0;whiteSpace=wrap;html=1;" parent="WIyWlLk6GJQsqaUBKTNV-1" vertex="1"><mxGeometry x="790" y="500" width="150" height="52" as="geometry"/></mxCell><mxCell id="9NOFG1vIKV7tSebcZaDs-38" value="- cards: List&amp;lt;Card&amp;gt;" style="text;strokeColor=none;fillColor=none;align=left;verticalAlign=top;spacingLeft=4;spacingRight=4;overflow=hidden;rotatable=0;points=[[0,0.5],[1,0.5]];portConstraint=eastwest;whiteSpace=wrap;html=1;" parent="9NOFG1vIKV7tSebcZaDs-37" vertex="1"><mxGeometry y="26" width="150" height="26" as="geometry"/></mxCell><mxCell id="9NOFG1vIKV7tSebcZaDs-42" value="" style="shape=cylinder3;whiteSpace=wrap;html=1;boundedLbl=1;backgroundOutline=1;size=15;" parent="WIyWlLk6GJQsqaUBKTNV-1" vertex="1"><mxGeometry x="1260" y="548" width="60" height="80" as="geometry"/></mxCell><mxCell id="9NOFG1vIKV7tSebcZaDs-63" style="edgeStyle=orthogonalEdgeStyle;rounded=0;orthogonalLoop=1;jettySize=auto;html=1;dashed=1;" parent="WIyWlLk6GJQsqaUBKTNV-1" source="9NOFG1vIKV7tSebcZaDs-43" target="9NOFG1vIKV7tSebcZaDs-59" edge="1"><mxGeometry relative="1" as="geometry"><Array as="points"><mxPoint x="1210" y="539"/></Array></mxGeometry></mxCell><mxCell id="9NOFG1vIKV7tSebcZaDs-43" value="StarterDeckDefinitionRepository" style="swimlane;fontStyle=0;childLayout=stackLayout;horizontal=1;startSize=30;fillColor=none;horizontalStack=0;resizeParent=1;resizeParentMax=0;resizeLast=0;collapsible=1;marginBottom=0;whiteSpace=wrap;html=1;" parent="WIyWlLk6GJQsqaUBKTNV-1" vertex="1"><mxGeometry x="1190" y="628" width="220" height="60" as="geometry"><mxRectangle x="620" y="30" width="150" height="30" as="alternateBounds"/></mxGeometry></mxCell><mxCell id="9NOFG1vIKV7tSebcZaDs-44" value="- LoadFromPath(): StarterDeckDefinition" style="text;html=1;align=center;verticalAlign=middle;resizable=0;points=[];autosize=1;strokeColor=none;fillColor=none;" parent="9NOFG1vIKV7tSebcZaDs-43" vertex="1"><mxGeometry y="30" width="220" height="30" as="geometry"/></mxCell><mxCell id="9NOFG1vIKV7tSebcZaDs-53" style="edgeStyle=orthogonalEdgeStyle;rounded=0;orthogonalLoop=1;jettySize=auto;html=1;entryX=0.433;entryY=0.981;entryDx=0;entryDy=0;entryPerimeter=0;dashed=1;" parent="WIyWlLk6GJQsqaUBKTNV-1" source="9NOFG1vIKV7tSebcZaDs-47" target="9NOFG1vIKV7tSebcZaDs-38" edge="1"><mxGeometry relative="1" as="geometry"><Array as="points"><mxPoint x="855" y="670"/><mxPoint x="855" y="670"/></Array></mxGeometry></mxCell><mxCell id="9NOFG1vIKV7tSebcZaDs-47" value="&lt;span style=&quot;font-weight: normal;&quot;&gt;StarterDeckService&lt;/span&gt;" style="swimlane;fontStyle=1;align=center;verticalAlign=top;childLayout=stackLayout;horizontal=1;startSize=26;horizontalStack=0;resizeParent=1;resizeParentMax=0;resizeLast=0;collapsible=1;marginBottom=0;whiteSpace=wrap;html=1;" parent="WIyWlLk6GJQsqaUBKTNV-1" vertex="1"><mxGeometry x="710" y="705" width="380" height="104" as="geometry"/></mxCell><mxCell id="9NOFG1vIKV7tSebcZaDs-48" value="+ starterDeck: StarterDeck&lt;br&gt;+ starterDeckDefinitionRepository:&amp;nbsp;StarterDeckDefinitionRepository" style="text;strokeColor=none;fillColor=none;align=left;verticalAlign=top;spacingLeft=4;spacingRight=4;overflow=hidden;rotatable=0;points=[[0,0.5],[1,0.5]];portConstraint=eastwest;whiteSpace=wrap;html=1;" parent="9NOFG1vIKV7tSebcZaDs-47" vertex="1"><mxGeometry y="26" width="380" height="44" as="geometry"/></mxCell><mxCell id="9NOFG1vIKV7tSebcZaDs-49" value="" style="line;strokeWidth=1;fillColor=none;align=left;verticalAlign=middle;spacingTop=-1;spacingLeft=3;spacingRight=3;rotatable=0;labelPosition=right;points=[];portConstraint=eastwest;strokeColor=inherit;" parent="9NOFG1vIKV7tSebcZaDs-47" vertex="1"><mxGeometry y="70" width="380" height="8" as="geometry"/></mxCell><mxCell id="9NOFG1vIKV7tSebcZaDs-50" value="+ SetStarterDeck(): void" style="text;strokeColor=none;fillColor=none;align=left;verticalAlign=top;spacingLeft=4;spacingRight=4;overflow=hidden;rotatable=0;points=[[0,0.5],[1,0.5]];portConstraint=eastwest;whiteSpace=wrap;html=1;" parent="9NOFG1vIKV7tSebcZaDs-47" vertex="1"><mxGeometry y="78" width="380" height="26" as="geometry"/></mxCell><mxCell id="9NOFG1vIKV7tSebcZaDs-82" style="edgeStyle=orthogonalEdgeStyle;rounded=0;orthogonalLoop=1;jettySize=auto;html=1;entryX=1.01;entryY=0.321;entryDx=0;entryDy=0;entryPerimeter=0;dashed=1;" parent="WIyWlLk6GJQsqaUBKTNV-1" source="9NOFG1vIKV7tSebcZaDs-58" target="dDIwDJEJSTGHqXr8lB01-11" edge="1"><mxGeometry relative="1" as="geometry"><Array as="points"><mxPoint x="980" y="394"/></Array></mxGeometry></mxCell><mxCell id="9NOFG1vIKV7tSebcZaDs-58" value="StarterDeckDefinition" style="swimlane;fontStyle=0;childLayout=stackLayout;horizontal=1;startSize=26;fillColor=none;horizontalStack=0;resizeParent=1;resizeParentMax=0;resizeLast=0;collapsible=1;marginBottom=0;whiteSpace=wrap;html=1;" parent="WIyWlLk6GJQsqaUBKTNV-1" vertex="1"><mxGeometry x="960" y="500" width="150" height="52" as="geometry"/></mxCell><mxCell id="9NOFG1vIKV7tSebcZaDs-59" value="- cards: List&amp;lt;Card&amp;gt;" style="text;strokeColor=none;fillColor=none;align=left;verticalAlign=top;spacingLeft=4;spacingRight=4;overflow=hidden;rotatable=0;points=[[0,0.5],[1,0.5]];portConstraint=eastwest;whiteSpace=wrap;html=1;" parent="9NOFG1vIKV7tSebcZaDs-58" vertex="1"><mxGeometry y="26" width="150" height="26" as="geometry"/></mxCell><mxCell id="9NOFG1vIKV7tSebcZaDs-60" value="SO" style="ellipse;shape=umlEntity;whiteSpace=wrap;html=1;fontSize=16;" parent="WIyWlLk6GJQsqaUBKTNV-1" vertex="1"><mxGeometry x="995" y="420" width="80" height="80" as="geometry"/></mxCell><mxCell id="9NOFG1vIKV7tSebcZaDs-61" style="edgeStyle=orthogonalEdgeStyle;rounded=0;orthogonalLoop=1;jettySize=auto;html=1;shape=link;entryX=0;entryY=0.183;entryDx=0;entryDy=0;entryPerimeter=0;" parent="WIyWlLk6GJQsqaUBKTNV-1" source="9NOFG1vIKV7tSebcZaDs-48" target="9NOFG1vIKV7tSebcZaDs-44" edge="1"><mxGeometry relative="1" as="geometry"/></mxCell><mxCell id="glfExYMYrv6Kglk-eBwV-0" value="SO" style="ellipse;shape=umlEntity;whiteSpace=wrap;html=1;fontSize=16;" parent="WIyWlLk6GJQsqaUBKTNV-1" vertex="1"><mxGeometry x="-731" y="130" width="80" height="80" as="geometry"/></mxCell><mxCell id="glfExYMYrv6Kglk-eBwV-1" value="&amp;lt;-- All effects are SOs" style="text;html=1;align=center;verticalAlign=middle;resizable=0;points=[];autosize=1;strokeColor=none;fillColor=none;" parent="WIyWlLk6GJQsqaUBKTNV-1" vertex="1"><mxGeometry x="-650" y="170" width="140" height="30" as="geometry"/></mxCell><mxCell id="glfExYMYrv6Kglk-eBwV-11" style="edgeStyle=orthogonalEdgeStyle;rounded=0;orthogonalLoop=1;jettySize=auto;html=1;endArrow=oval;endFill=1;" parent="WIyWlLk6GJQsqaUBKTNV-1" source="glfExYMYrv6Kglk-eBwV-5" target="dDIwDJEJSTGHqXr8lB01-23" edge="1"><mxGeometry relative="1" as="geometry"><Array as="points"><mxPoint x="-340" y="660"/><mxPoint x="-340" y="660"/></Array></mxGeometry></mxCell><mxCell id="glfExYMYrv6Kglk-eBwV-12" value="DamageByAmount" style="edgeLabel;html=1;align=center;verticalAlign=middle;resizable=0;points=[];" parent="glfExYMYrv6Kglk-eBwV-11" vertex="1" connectable="0"><mxGeometry x="-0.689" y="1" relative="1" as="geometry"><mxPoint x="2" y="59" as="offset"/></mxGeometry></mxCell><mxCell id="glfExYMYrv6Kglk-eBwV-5" value="&lt;span style=&quot;font-weight: 400;&quot;&gt;ScaleFishCE&lt;/span&gt;" style="swimlane;fontStyle=1;align=center;verticalAlign=top;childLayout=stackLayout;horizontal=1;startSize=26;horizontalStack=0;resizeParent=1;resizeParentMax=0;resizeLast=0;collapsible=1;marginBottom=0;whiteSpace=wrap;html=1;" parent="WIyWlLk6GJQsqaUBKTNV-1" vertex="1"><mxGeometry x="-450" y="500" width="180" height="94" as="geometry"><mxRectangle x="-450" y="143" width="140" height="30" as="alternateBounds"/></mxGeometry></mxCell><mxCell id="glfExYMYrv6Kglk-eBwV-6" value="+ amountOfScalesToRemove:&lt;br&gt;int" style="text;strokeColor=none;fillColor=none;align=left;verticalAlign=top;spacingLeft=4;spacingRight=4;overflow=hidden;rotatable=0;points=[[0,0.5],[1,0.5]];portConstraint=eastwest;whiteSpace=wrap;html=1;" parent="glfExYMYrv6Kglk-eBwV-5" vertex="1"><mxGeometry y="26" width="180" height="34" as="geometry"/></mxCell><mxCell id="glfExYMYrv6Kglk-eBwV-7" value="" style="line;strokeWidth=1;fillColor=none;align=left;verticalAlign=middle;spacingTop=-1;spacingLeft=3;spacingRight=3;rotatable=0;labelPosition=right;points=[];portConstraint=eastwest;strokeColor=inherit;" parent="glfExYMYrv6Kglk-eBwV-5" vertex="1"><mxGeometry y="60" width="180" height="8" as="geometry"/></mxCell><mxCell id="glfExYMYrv6Kglk-eBwV-8" value="+ override Execute(): void" style="text;strokeColor=none;fillColor=none;align=left;verticalAlign=top;spacingLeft=4;spacingRight=4;overflow=hidden;rotatable=0;points=[[0,0.5],[1,0.5]];portConstraint=eastwest;whiteSpace=wrap;html=1;" parent="glfExYMYrv6Kglk-eBwV-5" vertex="1"><mxGeometry y="68" width="180" height="26" as="geometry"/></mxCell><mxCell id="glfExYMYrv6Kglk-eBwV-9" style="edgeStyle=orthogonalEdgeStyle;rounded=0;orthogonalLoop=1;jettySize=auto;html=1;" parent="WIyWlLk6GJQsqaUBKTNV-1" source="glfExYMYrv6Kglk-eBwV-5" target="kyEuraz-bxoVGQhwH_C7-42" edge="1"><mxGeometry relative="1" as="geometry"/></mxCell><mxCell id="glfExYMYrv6Kglk-eBwV-13" value="&lt;span style=&quot;font-weight: 400;&quot;&gt;ScaleFishMultipliedCE&lt;/span&gt;" style="swimlane;fontStyle=1;align=center;verticalAlign=top;childLayout=stackLayout;horizontal=1;startSize=26;horizontalStack=0;resizeParent=1;resizeParentMax=0;resizeLast=0;collapsible=1;marginBottom=0;whiteSpace=wrap;html=1;" parent="WIyWlLk6GJQsqaUBKTNV-1" vertex="1"><mxGeometry x="-685" y="360" width="180" height="270" as="geometry"><mxRectangle x="-450" y="143" width="140" height="30" as="alternateBounds"/></mxGeometry></mxCell><mxCell id="glfExYMYrv6Kglk-eBwV-14" value="+ baseAmountOfScales: int" style="text;strokeColor=none;fillColor=none;align=left;verticalAlign=top;spacingLeft=4;spacingRight=4;overflow=hidden;rotatable=0;points=[[0,0.5],[1,0.5]];portConstraint=eastwest;whiteSpace=wrap;html=1;" parent="glfExYMYrv6Kglk-eBwV-13" vertex="1"><mxGeometry y="26" width="180" height="24" as="geometry"/></mxCell><mxCell id="glfExYMYrv6Kglk-eBwV-17" value="+ incrementAmountOfScales: int" style="text;strokeColor=none;fillColor=none;align=left;verticalAlign=top;spacingLeft=4;spacingRight=4;overflow=hidden;rotatable=0;points=[[0,0.5],[1,0.5]];portConstraint=eastwest;whiteSpace=wrap;html=1;" parent="glfExYMYrv6Kglk-eBwV-13" vertex="1"><mxGeometry y="50" width="180" height="40" as="geometry"/></mxCell><mxCell id="glfExYMYrv6Kglk-eBwV-18" value="+ multiplyOnceForEachCard NamePlayed: bool" style="text;strokeColor=none;fillColor=none;align=left;verticalAlign=top;spacingLeft=4;spacingRight=4;overflow=hidden;rotatable=0;points=[[0,0.5],[1,0.5]];portConstraint=eastwest;whiteSpace=wrap;html=1;" parent="glfExYMYrv6Kglk-eBwV-13" vertex="1"><mxGeometry y="90" width="180" height="40" as="geometry"/></mxCell><mxCell id="glfExYMYrv6Kglk-eBwV-20" value="+ playedCardRef: Card" style="text;strokeColor=none;fillColor=none;align=left;verticalAlign=top;spacingLeft=4;spacingRight=4;overflow=hidden;rotatable=0;points=[[0,0.5],[1,0.5]];portConstraint=eastwest;whiteSpace=wrap;html=1;" parent="glfExYMYrv6Kglk-eBwV-13" vertex="1"><mxGeometry y="130" width="180" height="30" as="geometry"/></mxCell><mxCell id="glfExYMYrv6Kglk-eBwV-19" value="+ multiplicationLimit: int" style="text;strokeColor=none;fillColor=none;align=left;verticalAlign=top;spacingLeft=4;spacingRight=4;overflow=hidden;rotatable=0;points=[[0,0.5],[1,0.5]];portConstraint=eastwest;whiteSpace=wrap;html=1;" parent="glfExYMYrv6Kglk-eBwV-13" vertex="1"><mxGeometry y="160" width="180" height="30" as="geometry"/></mxCell><mxCell id="glfExYMYrv6Kglk-eBwV-15" value="" style="line;strokeWidth=1;fillColor=none;align=left;verticalAlign=middle;spacingTop=-1;spacingLeft=3;spacingRight=3;rotatable=0;labelPosition=right;points=[];portConstraint=eastwest;strokeColor=inherit;" parent="glfExYMYrv6Kglk-eBwV-13" vertex="1"><mxGeometry y="190" width="180" height="8" as="geometry"/></mxCell><mxCell id="glfExYMYrv6Kglk-eBwV-16" value="+ override Execute(): void" style="text;strokeColor=none;fillColor=none;align=left;verticalAlign=top;spacingLeft=4;spacingRight=4;overflow=hidden;rotatable=0;points=[[0,0.5],[1,0.5]];portConstraint=eastwest;whiteSpace=wrap;html=1;" parent="glfExYMYrv6Kglk-eBwV-13" vertex="1"><mxGeometry y="198" width="180" height="26" as="geometry"/></mxCell><mxCell id="jd7sBL_ZRLo0PxZRcB78-11" value="+ override ExecuteDoubled(): void" style="text;strokeColor=none;fillColor=none;align=left;verticalAlign=top;spacingLeft=4;spacingRight=4;overflow=hidden;rotatable=0;points=[[0,0.5],[1,0.5]];portConstraint=eastwest;whiteSpace=wrap;html=1;" parent="glfExYMYrv6Kglk-eBwV-13" vertex="1"><mxGeometry y="224" width="180" height="46" as="geometry"/></mxCell><mxCell id="FwULBE35Prdf7N5nhsue-2" value="SO" style="ellipse;shape=umlEntity;whiteSpace=wrap;html=1;fontSize=16;" parent="WIyWlLk6GJQsqaUBKTNV-1" vertex="1"><mxGeometry x="-400" y="253" width="80" height="80" as="geometry"/></mxCell><mxCell id="glfExYMYrv6Kglk-eBwV-22" style="edgeStyle=orthogonalEdgeStyle;rounded=0;orthogonalLoop=1;jettySize=auto;html=1;exitX=1.004;exitY=0.06;exitDx=0;exitDy=0;exitPerimeter=0;" parent="WIyWlLk6GJQsqaUBKTNV-1" source="glfExYMYrv6Kglk-eBwV-13" target="kyEuraz-bxoVGQhwH_C7-42" edge="1"><mxGeometry relative="1" as="geometry"><Array as="points"><mxPoint x="-480" y="373"/><mxPoint x="-480" y="373"/></Array></mxGeometry></mxCell><mxCell id="glfExYMYrv6Kglk-eBwV-23" style="edgeStyle=orthogonalEdgeStyle;rounded=0;orthogonalLoop=1;jettySize=auto;html=1;endArrow=none;endFill=0;" parent="WIyWlLk6GJQsqaUBKTNV-1" target="dDIwDJEJSTGHqXr8lB01-23" edge="1"><mxGeometry relative="1" as="geometry"><Array as="points"><mxPoint x="-520" y="783"/></Array><mxPoint x="-520" y="630" as="sourcePoint"/></mxGeometry></mxCell><mxCell id="glfExYMYrv6Kglk-eBwV-25" value="DamageByAmount" style="edgeLabel;html=1;align=center;verticalAlign=middle;resizable=0;points=[];" parent="glfExYMYrv6Kglk-eBwV-23" vertex="1" connectable="0"><mxGeometry x="-0.3084" y="-2" relative="1" as="geometry"><mxPoint x="1" y="-36" as="offset"/></mxGeometry></mxCell><mxCell id="glfExYMYrv6Kglk-eBwV-34" style="edgeStyle=orthogonalEdgeStyle;rounded=0;orthogonalLoop=1;jettySize=auto;html=1;" parent="WIyWlLk6GJQsqaUBKTNV-1" source="glfExYMYrv6Kglk-eBwV-26" target="kyEuraz-bxoVGQhwH_C7-42" edge="1"><mxGeometry relative="1" as="geometry"><Array as="points"><mxPoint x="-800" y="350"/></Array></mxGeometry></mxCell><mxCell id="glfExYMYrv6Kglk-eBwV-35" style="edgeStyle=orthogonalEdgeStyle;rounded=0;orthogonalLoop=1;jettySize=auto;html=1;endArrow=none;endFill=0;" parent="WIyWlLk6GJQsqaUBKTNV-1" source="glfExYMYrv6Kglk-eBwV-26" target="dDIwDJEJSTGHqXr8lB01-23" edge="1"><mxGeometry relative="1" as="geometry"><Array as="points"><mxPoint x="-800" y="783"/></Array></mxGeometry></mxCell><mxCell id="glfExYMYrv6Kglk-eBwV-36" value="DamageByAmount" style="edgeLabel;html=1;align=center;verticalAlign=middle;resizable=0;points=[];" parent="glfExYMYrv6Kglk-eBwV-35" vertex="1" connectable="0"><mxGeometry x="-0.7138" relative="1" as="geometry"><mxPoint y="54" as="offset"/></mxGeometry></mxCell><mxCell id="glfExYMYrv6Kglk-eBwV-26" value="&lt;span style=&quot;font-weight: 400;&quot;&gt;ScaleFishWithTimeBonusCE&lt;/span&gt;" style="swimlane;fontStyle=1;align=center;verticalAlign=top;childLayout=stackLayout;horizontal=1;startSize=26;horizontalStack=0;resizeParent=1;resizeParentMax=0;resizeLast=0;collapsible=1;marginBottom=0;whiteSpace=wrap;html=1;" parent="WIyWlLk6GJQsqaUBKTNV-1" vertex="1"><mxGeometry x="-890" y="360" width="180" height="170" as="geometry"><mxRectangle x="-450" y="143" width="140" height="30" as="alternateBounds"/></mxGeometry></mxCell><mxCell id="glfExYMYrv6Kglk-eBwV-27" value="+ baseAmountOfScales: int" style="text;strokeColor=none;fillColor=none;align=left;verticalAlign=top;spacingLeft=4;spacingRight=4;overflow=hidden;rotatable=0;points=[[0,0.5],[1,0.5]];portConstraint=eastwest;whiteSpace=wrap;html=1;" parent="glfExYMYrv6Kglk-eBwV-26" vertex="1"><mxGeometry y="26" width="180" height="24" as="geometry"/></mxCell><mxCell id="glfExYMYrv6Kglk-eBwV-28" value="+ bonusAmountForEach RemainingTime: int" style="text;strokeColor=none;fillColor=none;align=left;verticalAlign=top;spacingLeft=4;spacingRight=4;overflow=hidden;rotatable=0;points=[[0,0.5],[1,0.5]];portConstraint=eastwest;whiteSpace=wrap;html=1;" parent="glfExYMYrv6Kglk-eBwV-26" vertex="1"><mxGeometry y="50" width="180" height="40" as="geometry"/></mxCell><mxCell id="glfExYMYrv6Kglk-eBwV-32" value="" style="line;strokeWidth=1;fillColor=none;align=left;verticalAlign=middle;spacingTop=-1;spacingLeft=3;spacingRight=3;rotatable=0;labelPosition=right;points=[];portConstraint=eastwest;strokeColor=inherit;" parent="glfExYMYrv6Kglk-eBwV-26" vertex="1"><mxGeometry y="90" width="180" height="8" as="geometry"/></mxCell><mxCell id="glfExYMYrv6Kglk-eBwV-33" value="+ override Execute(): void" style="text;strokeColor=none;fillColor=none;align=left;verticalAlign=top;spacingLeft=4;spacingRight=4;overflow=hidden;rotatable=0;points=[[0,0.5],[1,0.5]];portConstraint=eastwest;whiteSpace=wrap;html=1;" parent="glfExYMYrv6Kglk-eBwV-26" vertex="1"><mxGeometry y="98" width="180" height="26" as="geometry"/></mxCell><mxCell id="jd7sBL_ZRLo0PxZRcB78-12" value="+ override ExecuteDoubled(): void" style="text;strokeColor=none;fillColor=none;align=left;verticalAlign=top;spacingLeft=4;spacingRight=4;overflow=hidden;rotatable=0;points=[[0,0.5],[1,0.5]];portConstraint=eastwest;whiteSpace=wrap;html=1;" parent="glfExYMYrv6Kglk-eBwV-26" vertex="1"><mxGeometry y="124" width="180" height="46" as="geometry"/></mxCell><mxCell id="glfExYMYrv6Kglk-eBwV-42" style="edgeStyle=orthogonalEdgeStyle;rounded=0;orthogonalLoop=1;jettySize=auto;html=1;" parent="WIyWlLk6GJQsqaUBKTNV-1" source="glfExYMYrv6Kglk-eBwV-37" target="kyEuraz-bxoVGQhwH_C7-42" edge="1"><mxGeometry relative="1" as="geometry"><Array as="points"><mxPoint x="-1030" y="350"/></Array></mxGeometry></mxCell><mxCell id="glfExYMYrv6Kglk-eBwV-43" style="edgeStyle=orthogonalEdgeStyle;rounded=0;orthogonalLoop=1;jettySize=auto;html=1;endArrow=none;endFill=0;" parent="WIyWlLk6GJQsqaUBKTNV-1" source="glfExYMYrv6Kglk-eBwV-37" target="dDIwDJEJSTGHqXr8lB01-23" edge="1"><mxGeometry relative="1" as="geometry"><Array as="points"><mxPoint x="-1030" y="783"/></Array></mxGeometry></mxCell><mxCell id="glfExYMYrv6Kglk-eBwV-44" value="DamageByAmount" style="edgeLabel;html=1;align=center;verticalAlign=middle;resizable=0;points=[];" parent="glfExYMYrv6Kglk-eBwV-43" vertex="1" connectable="0"><mxGeometry x="-0.5912" y="2" relative="1" as="geometry"><mxPoint x="8" y="-29" as="offset"/></mxGeometry></mxCell><mxCell id="glfExYMYrv6Kglk-eBwV-37" value="&lt;span style=&quot;font-weight: 400;&quot;&gt;ScaleFishWithItemOnBoardBonusCE&lt;/span&gt;" style="swimlane;fontStyle=1;align=center;verticalAlign=top;childLayout=stackLayout;horizontal=1;startSize=26;horizontalStack=0;resizeParent=1;resizeParentMax=0;resizeLast=0;collapsible=1;marginBottom=0;whiteSpace=wrap;html=1;" parent="WIyWlLk6GJQsqaUBKTNV-1" vertex="1"><mxGeometry x="-1140" y="360" width="220" height="170" as="geometry"><mxRectangle x="-450" y="143" width="140" height="30" as="alternateBounds"/></mxGeometry></mxCell><mxCell id="glfExYMYrv6Kglk-eBwV-38" value="+ baseAmountOfScales: int" style="text;strokeColor=none;fillColor=none;align=left;verticalAlign=top;spacingLeft=4;spacingRight=4;overflow=hidden;rotatable=0;points=[[0,0.5],[1,0.5]];portConstraint=eastwest;whiteSpace=wrap;html=1;" parent="glfExYMYrv6Kglk-eBwV-37" vertex="1"><mxGeometry y="26" width="220" height="24" as="geometry"/></mxCell><mxCell id="glfExYMYrv6Kglk-eBwV-39" value="+ bonusAmountForEachItemOnBoard: int" style="text;strokeColor=none;fillColor=none;align=left;verticalAlign=top;spacingLeft=4;spacingRight=4;overflow=hidden;rotatable=0;points=[[0,0.5],[1,0.5]];portConstraint=eastwest;whiteSpace=wrap;html=1;" parent="glfExYMYrv6Kglk-eBwV-37" vertex="1"><mxGeometry y="50" width="220" height="40" as="geometry"/></mxCell><mxCell id="glfExYMYrv6Kglk-eBwV-40" value="" style="line;strokeWidth=1;fillColor=none;align=left;verticalAlign=middle;spacingTop=-1;spacingLeft=3;spacingRight=3;rotatable=0;labelPosition=right;points=[];portConstraint=eastwest;strokeColor=inherit;" parent="glfExYMYrv6Kglk-eBwV-37" vertex="1"><mxGeometry y="90" width="220" height="8" as="geometry"/></mxCell><mxCell id="glfExYMYrv6Kglk-eBwV-41" value="+ override Execute(): void" style="text;strokeColor=none;fillColor=none;align=left;verticalAlign=top;spacingLeft=4;spacingRight=4;overflow=hidden;rotatable=0;points=[[0,0.5],[1,0.5]];portConstraint=eastwest;whiteSpace=wrap;html=1;" parent="glfExYMYrv6Kglk-eBwV-37" vertex="1"><mxGeometry y="98" width="220" height="26" as="geometry"/></mxCell><mxCell id="jd7sBL_ZRLo0PxZRcB78-13" value="+ override ExecuteDoubled(): void" style="text;strokeColor=none;fillColor=none;align=left;verticalAlign=top;spacingLeft=4;spacingRight=4;overflow=hidden;rotatable=0;points=[[0,0.5],[1,0.5]];portConstraint=eastwest;whiteSpace=wrap;html=1;" parent="glfExYMYrv6Kglk-eBwV-37" vertex="1"><mxGeometry y="124" width="220" height="46" as="geometry"/></mxCell><mxCell id="glfExYMYrv6Kglk-eBwV-50" style="edgeStyle=orthogonalEdgeStyle;rounded=0;orthogonalLoop=1;jettySize=auto;html=1;" parent="WIyWlLk6GJQsqaUBKTNV-1" source="glfExYMYrv6Kglk-eBwV-45" target="kyEuraz-bxoVGQhwH_C7-42" edge="1"><mxGeometry relative="1" as="geometry"><Array as="points"><mxPoint x="-1270" y="350"/></Array></mxGeometry></mxCell><mxCell id="glfExYMYrv6Kglk-eBwV-51" style="edgeStyle=orthogonalEdgeStyle;rounded=0;orthogonalLoop=1;jettySize=auto;html=1;endArrow=oval;endFill=1;" parent="WIyWlLk6GJQsqaUBKTNV-1" source="glfExYMYrv6Kglk-eBwV-45" target="dDIwDJEJSTGHqXr8lB01-23" edge="1"><mxGeometry relative="1" as="geometry"><Array as="points"><mxPoint x="-1270" y="783"/></Array></mxGeometry></mxCell><mxCell id="glfExYMYrv6Kglk-eBwV-52" value="DamageByAmount" style="edgeLabel;html=1;align=center;verticalAlign=middle;resizable=0;points=[];" parent="glfExYMYrv6Kglk-eBwV-51" vertex="1" connectable="0"><mxGeometry x="-0.6822" y="-1" relative="1" as="geometry"><mxPoint x="1" y="-30" as="offset"/></mxGeometry></mxCell><mxCell id="glfExYMYrv6Kglk-eBwV-45" value="&lt;span style=&quot;font-weight: 400;&quot;&gt;ScaleFishWithHandCardSizeBonusCE&lt;/span&gt;" style="swimlane;fontStyle=1;align=center;verticalAlign=top;childLayout=stackLayout;horizontal=1;startSize=26;horizontalStack=0;resizeParent=1;resizeParentMax=0;resizeLast=0;collapsible=1;marginBottom=0;whiteSpace=wrap;html=1;" parent="WIyWlLk6GJQsqaUBKTNV-1" vertex="1"><mxGeometry x="-1380" y="360" width="220" height="170" as="geometry"><mxRectangle x="-450" y="143" width="140" height="30" as="alternateBounds"/></mxGeometry></mxCell><mxCell id="glfExYMYrv6Kglk-eBwV-46" value="+ baseAmountOfScales: int" style="text;strokeColor=none;fillColor=none;align=left;verticalAlign=top;spacingLeft=4;spacingRight=4;overflow=hidden;rotatable=0;points=[[0,0.5],[1,0.5]];portConstraint=eastwest;whiteSpace=wrap;html=1;" parent="glfExYMYrv6Kglk-eBwV-45" vertex="1"><mxGeometry y="26" width="220" height="24" as="geometry"/></mxCell><mxCell id="glfExYMYrv6Kglk-eBwV-47" value="+ bonusAmountForEachCardInHand: int" style="text;strokeColor=none;fillColor=none;align=left;verticalAlign=top;spacingLeft=4;spacingRight=4;overflow=hidden;rotatable=0;points=[[0,0.5],[1,0.5]];portConstraint=eastwest;whiteSpace=wrap;html=1;" parent="glfExYMYrv6Kglk-eBwV-45" vertex="1"><mxGeometry y="50" width="220" height="40" as="geometry"/></mxCell><mxCell id="glfExYMYrv6Kglk-eBwV-48" value="" style="line;strokeWidth=1;fillColor=none;align=left;verticalAlign=middle;spacingTop=-1;spacingLeft=3;spacingRight=3;rotatable=0;labelPosition=right;points=[];portConstraint=eastwest;strokeColor=inherit;" parent="glfExYMYrv6Kglk-eBwV-45" vertex="1"><mxGeometry y="90" width="220" height="8" as="geometry"/></mxCell><mxCell id="glfExYMYrv6Kglk-eBwV-49" value="+ override Execute(): void" style="text;strokeColor=none;fillColor=none;align=left;verticalAlign=top;spacingLeft=4;spacingRight=4;overflow=hidden;rotatable=0;points=[[0,0.5],[1,0.5]];portConstraint=eastwest;whiteSpace=wrap;html=1;" parent="glfExYMYrv6Kglk-eBwV-45" vertex="1"><mxGeometry y="98" width="220" height="26" as="geometry"/></mxCell><mxCell id="jd7sBL_ZRLo0PxZRcB78-14" value="+ override ExecuteDoubled(): void" style="text;strokeColor=none;fillColor=none;align=left;verticalAlign=top;spacingLeft=4;spacingRight=4;overflow=hidden;rotatable=0;points=[[0,0.5],[1,0.5]];portConstraint=eastwest;whiteSpace=wrap;html=1;" parent="glfExYMYrv6Kglk-eBwV-45" vertex="1"><mxGeometry y="124" width="220" height="46" as="geometry"/></mxCell><mxCell id="eIus6dDAk17Qi3Uw3q87-6" style="edgeStyle=orthogonalEdgeStyle;rounded=0;orthogonalLoop=1;jettySize=auto;html=1;" parent="WIyWlLk6GJQsqaUBKTNV-1" source="eIus6dDAk17Qi3Uw3q87-1" target="kyEuraz-bxoVGQhwH_C7-42" edge="1"><mxGeometry relative="1" as="geometry"><Array as="points"><mxPoint x="-1510" y="350"/></Array></mxGeometry></mxCell><mxCell id="eIus6dDAk17Qi3Uw3q87-1" value="&lt;span style=&quot;font-weight: 400;&quot;&gt;ScaleAllFishThisTurnCE&lt;/span&gt;" style="swimlane;fontStyle=1;align=center;verticalAlign=top;childLayout=stackLayout;horizontal=1;startSize=26;horizontalStack=0;resizeParent=1;resizeParentMax=0;resizeLast=0;collapsible=1;marginBottom=0;whiteSpace=wrap;html=1;" parent="WIyWlLk6GJQsqaUBKTNV-1" vertex="1"><mxGeometry x="-1620" y="360" width="220" height="178" as="geometry"><mxRectangle x="-450" y="143" width="140" height="30" as="alternateBounds"/></mxGeometry></mxCell><mxCell id="eIus6dDAk17Qi3Uw3q87-2" value="+ baseAmountOfScales: int" style="text;strokeColor=none;fillColor=none;align=left;verticalAlign=top;spacingLeft=4;spacingRight=4;overflow=hidden;rotatable=0;points=[[0,0.5],[1,0.5]];portConstraint=eastwest;whiteSpace=wrap;html=1;" parent="eIus6dDAk17Qi3Uw3q87-1" vertex="1"><mxGeometry y="26" width="220" height="24" as="geometry"/></mxCell><mxCell id="jd7sBL_ZRLo0PxZRcB78-30" value="+ relativeAmountOfScales: float" style="text;strokeColor=none;fillColor=none;align=left;verticalAlign=top;spacingLeft=4;spacingRight=4;overflow=hidden;rotatable=0;points=[[0,0.5],[1,0.5]];portConstraint=eastwest;whiteSpace=wrap;html=1;" parent="eIus6dDAk17Qi3Uw3q87-1" vertex="1"><mxGeometry y="50" width="220" height="24" as="geometry"/></mxCell><mxCell id="jd7sBL_ZRLo0PxZRcB78-31" value="+ asLongAsItemOnBoard: ItemCard" style="text;strokeColor=none;fillColor=none;align=left;verticalAlign=top;spacingLeft=4;spacingRight=4;overflow=hidden;rotatable=0;points=[[0,0.5],[1,0.5]];portConstraint=eastwest;whiteSpace=wrap;html=1;" parent="eIus6dDAk17Qi3Uw3q87-1" vertex="1"><mxGeometry y="74" width="220" height="24" as="geometry"/></mxCell><mxCell id="eIus6dDAk17Qi3Uw3q87-4" value="" style="line;strokeWidth=1;fillColor=none;align=left;verticalAlign=middle;spacingTop=-1;spacingLeft=3;spacingRight=3;rotatable=0;labelPosition=right;points=[];portConstraint=eastwest;strokeColor=inherit;" parent="eIus6dDAk17Qi3Uw3q87-1" vertex="1"><mxGeometry y="98" width="220" height="8" as="geometry"/></mxCell><mxCell id="eIus6dDAk17Qi3Uw3q87-5" value="+ override Execute(): void" style="text;strokeColor=none;fillColor=none;align=left;verticalAlign=top;spacingLeft=4;spacingRight=4;overflow=hidden;rotatable=0;points=[[0,0.5],[1,0.5]];portConstraint=eastwest;whiteSpace=wrap;html=1;" parent="eIus6dDAk17Qi3Uw3q87-1" vertex="1"><mxGeometry y="106" width="220" height="26" as="geometry"/></mxCell><mxCell id="jd7sBL_ZRLo0PxZRcB78-15" value="+ override ExecuteDoubled(): void" style="text;strokeColor=none;fillColor=none;align=left;verticalAlign=top;spacingLeft=4;spacingRight=4;overflow=hidden;rotatable=0;points=[[0,0.5],[1,0.5]];portConstraint=eastwest;whiteSpace=wrap;html=1;" parent="eIus6dDAk17Qi3Uw3q87-1" vertex="1"><mxGeometry y="132" width="220" height="46" as="geometry"/></mxCell><mxCell id="eIus6dDAk17Qi3Uw3q87-19" style="edgeStyle=orthogonalEdgeStyle;rounded=0;orthogonalLoop=1;jettySize=auto;html=1;" parent="WIyWlLk6GJQsqaUBKTNV-1" source="eIus6dDAk17Qi3Uw3q87-13" target="kyEuraz-bxoVGQhwH_C7-42" edge="1"><mxGeometry relative="1" as="geometry"><Array as="points"><mxPoint x="-1750" y="350"/></Array></mxGeometry></mxCell><mxCell id="eIus6dDAk17Qi3Uw3q87-13" value="&lt;span style=&quot;font-weight: 400;&quot;&gt;ScaleBuffCE&lt;/span&gt;" style="swimlane;fontStyle=1;align=center;verticalAlign=top;childLayout=stackLayout;horizontal=1;startSize=26;horizontalStack=0;resizeParent=1;resizeParentMax=0;resizeLast=0;collapsible=1;marginBottom=0;whiteSpace=wrap;html=1;" parent="WIyWlLk6GJQsqaUBKTNV-1" vertex="1"><mxGeometry x="-1860" y="360" width="220" height="178" as="geometry"><mxRectangle x="-450" y="143" width="140" height="30" as="alternateBounds"/></mxGeometry></mxCell><mxCell id="eIus6dDAk17Qi3Uw3q87-14" value="+ amountOfScalesBoost: int" style="text;strokeColor=none;fillColor=none;align=left;verticalAlign=top;spacingLeft=4;spacingRight=4;overflow=hidden;rotatable=0;points=[[0,0.5],[1,0.5]];portConstraint=eastwest;whiteSpace=wrap;html=1;" parent="eIus6dDAk17Qi3Uw3q87-13" vertex="1"><mxGeometry y="26" width="220" height="24" as="geometry"/></mxCell><mxCell id="eIus6dDAk17Qi3Uw3q87-17" value="+ classToAffect: CardClass" style="text;strokeColor=none;fillColor=none;align=left;verticalAlign=top;spacingLeft=4;spacingRight=4;overflow=hidden;rotatable=0;points=[[0,0.5],[1,0.5]];portConstraint=eastwest;whiteSpace=wrap;html=1;" parent="eIus6dDAk17Qi3Uw3q87-13" vertex="1"><mxGeometry y="50" width="220" height="24" as="geometry"/></mxCell><mxCell id="jd7sBL_ZRLo0PxZRcB78-0" value="+ asLongAsItemOnBoard: ItemCard" style="text;strokeColor=none;fillColor=none;align=left;verticalAlign=top;spacingLeft=4;spacingRight=4;overflow=hidden;rotatable=0;points=[[0,0.5],[1,0.5]];portConstraint=eastwest;whiteSpace=wrap;html=1;" parent="eIus6dDAk17Qi3Uw3q87-13" vertex="1"><mxGeometry y="74" width="220" height="24" as="geometry"/></mxCell><mxCell id="eIus6dDAk17Qi3Uw3q87-15" value="" style="line;strokeWidth=1;fillColor=none;align=left;verticalAlign=middle;spacingTop=-1;spacingLeft=3;spacingRight=3;rotatable=0;labelPosition=right;points=[];portConstraint=eastwest;strokeColor=inherit;" parent="eIus6dDAk17Qi3Uw3q87-13" vertex="1"><mxGeometry y="98" width="220" height="8" as="geometry"/></mxCell><mxCell id="eIus6dDAk17Qi3Uw3q87-16" value="+ override Execute(): void" style="text;strokeColor=none;fillColor=none;align=left;verticalAlign=top;spacingLeft=4;spacingRight=4;overflow=hidden;rotatable=0;points=[[0,0.5],[1,0.5]];portConstraint=eastwest;whiteSpace=wrap;html=1;" parent="eIus6dDAk17Qi3Uw3q87-13" vertex="1"><mxGeometry y="106" width="220" height="26" as="geometry"/></mxCell><mxCell id="jd7sBL_ZRLo0PxZRcB78-16" value="+ override ExecuteDoubled(): void" style="text;strokeColor=none;fillColor=none;align=left;verticalAlign=top;spacingLeft=4;spacingRight=4;overflow=hidden;rotatable=0;points=[[0,0.5],[1,0.5]];portConstraint=eastwest;whiteSpace=wrap;html=1;" parent="eIus6dDAk17Qi3Uw3q87-13" vertex="1"><mxGeometry y="132" width="220" height="46" as="geometry"/></mxCell><mxCell id="eIus6dDAk17Qi3Uw3q87-27" style="edgeStyle=orthogonalEdgeStyle;rounded=0;orthogonalLoop=1;jettySize=auto;html=1;" parent="WIyWlLk6GJQsqaUBKTNV-1" source="eIus6dDAk17Qi3Uw3q87-20" target="kyEuraz-bxoVGQhwH_C7-42" edge="1"><mxGeometry relative="1" as="geometry"><Array as="points"><mxPoint x="-1990" y="350"/></Array></mxGeometry></mxCell><mxCell id="jd7sBL_ZRLo0PxZRcB78-63" style="edgeStyle=orthogonalEdgeStyle;rounded=0;orthogonalLoop=1;jettySize=auto;html=1;endArrow=oval;endFill=1;" parent="WIyWlLk6GJQsqaUBKTNV-1" source="eIus6dDAk17Qi3Uw3q87-20" target="qvqpCW7Pz-lQNfFqi8u_-35" edge="1"><mxGeometry relative="1" as="geometry"><Array as="points"><mxPoint x="-1990" y="1040"/><mxPoint x="-10" y="1040"/></Array></mxGeometry></mxCell><mxCell id="jd7sBL_ZRLo0PxZRcB78-64" value="DecreaseTime" style="edgeLabel;html=1;align=center;verticalAlign=middle;resizable=0;points=[];" parent="jd7sBL_ZRLo0PxZRcB78-63" vertex="1" connectable="0"><mxGeometry x="0.7556" y="3" relative="1" as="geometry"><mxPoint x="-5" y="2" as="offset"/></mxGeometry></mxCell><mxCell id="eIus6dDAk17Qi3Uw3q87-20" value="&lt;span style=&quot;font-weight: 400;&quot;&gt;TimeReductionCE&lt;/span&gt;" style="swimlane;fontStyle=1;align=center;verticalAlign=top;childLayout=stackLayout;horizontal=1;startSize=26;horizontalStack=0;resizeParent=1;resizeParentMax=0;resizeLast=0;collapsible=1;marginBottom=0;whiteSpace=wrap;html=1;" parent="WIyWlLk6GJQsqaUBKTNV-1" vertex="1"><mxGeometry x="-2100" y="360" width="220" height="226" as="geometry"><mxRectangle x="-450" y="143" width="140" height="30" as="alternateBounds"/></mxGeometry></mxCell><mxCell id="eIus6dDAk17Qi3Uw3q87-21" value="+ reductionAmount: int" style="text;strokeColor=none;fillColor=none;align=left;verticalAlign=top;spacingLeft=4;spacingRight=4;overflow=hidden;rotatable=0;points=[[0,0.5],[1,0.5]];portConstraint=eastwest;whiteSpace=wrap;html=1;" parent="eIus6dDAk17Qi3Uw3q87-20" vertex="1"><mxGeometry y="26" width="220" height="24" as="geometry"/></mxCell><mxCell id="eIus6dDAk17Qi3Uw3q87-65" value="+ halfAmountInstead: int" style="text;strokeColor=none;fillColor=none;align=left;verticalAlign=top;spacingLeft=4;spacingRight=4;overflow=hidden;rotatable=0;points=[[0,0.5],[1,0.5]];portConstraint=eastwest;whiteSpace=wrap;html=1;" parent="eIus6dDAk17Qi3Uw3q87-20" vertex="1"><mxGeometry y="50" width="220" height="24" as="geometry"/></mxCell><mxCell id="eIus6dDAk17Qi3Uw3q87-22" value="+ requiredCardClass: CardClass" style="text;strokeColor=none;fillColor=none;align=left;verticalAlign=top;spacingLeft=4;spacingRight=4;overflow=hidden;rotatable=0;points=[[0,0.5],[1,0.5]];portConstraint=eastwest;whiteSpace=wrap;html=1;" parent="eIus6dDAk17Qi3Uw3q87-20" vertex="1"><mxGeometry y="74" width="220" height="24" as="geometry"/></mxCell><mxCell id="eIus6dDAk17Qi3Uw3q87-25" value="+ requiredCardType: [ACTION, ITEM]" style="text;strokeColor=none;fillColor=none;align=left;verticalAlign=top;spacingLeft=4;spacingRight=4;overflow=hidden;rotatable=0;points=[[0,0.5],[1,0.5]];portConstraint=eastwest;whiteSpace=wrap;html=1;" parent="eIus6dDAk17Qi3Uw3q87-20" vertex="1"><mxGeometry y="98" width="220" height="24" as="geometry"/></mxCell><mxCell id="eIus6dDAk17Qi3Uw3q87-26" value="+ amountOfCardsToAffect: [ONE, ALL]" style="text;strokeColor=none;fillColor=none;align=left;verticalAlign=top;spacingLeft=4;spacingRight=4;overflow=hidden;rotatable=0;points=[[0,0.5],[1,0.5]];portConstraint=eastwest;whiteSpace=wrap;html=1;" parent="eIus6dDAk17Qi3Uw3q87-20" vertex="1"><mxGeometry y="122" width="220" height="24" as="geometry"/></mxCell><mxCell id="eIus6dDAk17Qi3Uw3q87-23" value="" style="line;strokeWidth=1;fillColor=none;align=left;verticalAlign=middle;spacingTop=-1;spacingLeft=3;spacingRight=3;rotatable=0;labelPosition=right;points=[];portConstraint=eastwest;strokeColor=inherit;" parent="eIus6dDAk17Qi3Uw3q87-20" vertex="1"><mxGeometry y="146" width="220" height="8" as="geometry"/></mxCell><mxCell id="eIus6dDAk17Qi3Uw3q87-24" value="+ override Execute(): void" style="text;strokeColor=none;fillColor=none;align=left;verticalAlign=top;spacingLeft=4;spacingRight=4;overflow=hidden;rotatable=0;points=[[0,0.5],[1,0.5]];portConstraint=eastwest;whiteSpace=wrap;html=1;" parent="eIus6dDAk17Qi3Uw3q87-20" vertex="1"><mxGeometry y="154" width="220" height="26" as="geometry"/></mxCell><mxCell id="jd7sBL_ZRLo0PxZRcB78-17" value="+ override ExecuteDoubled(): void" style="text;strokeColor=none;fillColor=none;align=left;verticalAlign=top;spacingLeft=4;spacingRight=4;overflow=hidden;rotatable=0;points=[[0,0.5],[1,0.5]];portConstraint=eastwest;whiteSpace=wrap;html=1;" parent="eIus6dDAk17Qi3Uw3q87-20" vertex="1"><mxGeometry y="180" width="220" height="46" as="geometry"/></mxCell><mxCell id="eIus6dDAk17Qi3Uw3q87-35" style="edgeStyle=orthogonalEdgeStyle;rounded=0;orthogonalLoop=1;jettySize=auto;html=1;" parent="WIyWlLk6GJQsqaUBKTNV-1" source="eIus6dDAk17Qi3Uw3q87-28" target="kyEuraz-bxoVGQhwH_C7-42" edge="1"><mxGeometry relative="1" as="geometry"><Array as="points"><mxPoint x="-2230" y="350"/></Array></mxGeometry></mxCell><mxCell id="jd7sBL_ZRLo0PxZRcB78-61" style="edgeStyle=orthogonalEdgeStyle;rounded=0;orthogonalLoop=1;jettySize=auto;html=1;endArrow=oval;endFill=1;" parent="WIyWlLk6GJQsqaUBKTNV-1" source="eIus6dDAk17Qi3Uw3q87-28" target="qvqpCW7Pz-lQNfFqi8u_-35" edge="1"><mxGeometry relative="1" as="geometry"><Array as="points"><mxPoint x="-2230" y="980"/><mxPoint x="-42" y="980"/></Array></mxGeometry></mxCell><mxCell id="jd7sBL_ZRLo0PxZRcB78-62" value="DrawCards" style="edgeLabel;html=1;align=center;verticalAlign=middle;resizable=0;points=[];" parent="jd7sBL_ZRLo0PxZRcB78-61" vertex="1" connectable="0"><mxGeometry x="0.8349" y="-4" relative="1" as="geometry"><mxPoint x="-4" y="-4" as="offset"/></mxGeometry></mxCell><mxCell id="eIus6dDAk17Qi3Uw3q87-28" value="&lt;span style=&quot;font-weight: 400;&quot;&gt;DrawCardCE&lt;/span&gt;" style="swimlane;fontStyle=1;align=center;verticalAlign=top;childLayout=stackLayout;horizontal=1;startSize=26;horizontalStack=0;resizeParent=1;resizeParentMax=0;resizeLast=0;collapsible=1;marginBottom=0;whiteSpace=wrap;html=1;" parent="WIyWlLk6GJQsqaUBKTNV-1" vertex="1"><mxGeometry x="-2340" y="360" width="220" height="130" as="geometry"><mxRectangle x="-450" y="143" width="140" height="30" as="alternateBounds"/></mxGeometry></mxCell><mxCell id="eIus6dDAk17Qi3Uw3q87-30" value="+ amountOfCardsToDraw: int" style="text;strokeColor=none;fillColor=none;align=left;verticalAlign=top;spacingLeft=4;spacingRight=4;overflow=hidden;rotatable=0;points=[[0,0.5],[1,0.5]];portConstraint=eastwest;whiteSpace=wrap;html=1;" parent="eIus6dDAk17Qi3Uw3q87-28" vertex="1"><mxGeometry y="26" width="220" height="24" as="geometry"/></mxCell><mxCell id="eIus6dDAk17Qi3Uw3q87-33" value="" style="line;strokeWidth=1;fillColor=none;align=left;verticalAlign=middle;spacingTop=-1;spacingLeft=3;spacingRight=3;rotatable=0;labelPosition=right;points=[];portConstraint=eastwest;strokeColor=inherit;" parent="eIus6dDAk17Qi3Uw3q87-28" vertex="1"><mxGeometry y="50" width="220" height="8" as="geometry"/></mxCell><mxCell id="eIus6dDAk17Qi3Uw3q87-34" value="+ override Execute(): void" style="text;strokeColor=none;fillColor=none;align=left;verticalAlign=top;spacingLeft=4;spacingRight=4;overflow=hidden;rotatable=0;points=[[0,0.5],[1,0.5]];portConstraint=eastwest;whiteSpace=wrap;html=1;" parent="eIus6dDAk17Qi3Uw3q87-28" vertex="1"><mxGeometry y="58" width="220" height="26" as="geometry"/></mxCell><mxCell id="jd7sBL_ZRLo0PxZRcB78-18" value="+ override ExecuteDoubled(): void" style="text;strokeColor=none;fillColor=none;align=left;verticalAlign=top;spacingLeft=4;spacingRight=4;overflow=hidden;rotatable=0;points=[[0,0.5],[1,0.5]];portConstraint=eastwest;whiteSpace=wrap;html=1;" parent="eIus6dDAk17Qi3Uw3q87-28" vertex="1"><mxGeometry y="84" width="220" height="46" as="geometry"/></mxCell><mxCell id="eIus6dDAk17Qi3Uw3q87-40" style="edgeStyle=orthogonalEdgeStyle;rounded=0;orthogonalLoop=1;jettySize=auto;html=1;" parent="WIyWlLk6GJQsqaUBKTNV-1" source="eIus6dDAk17Qi3Uw3q87-36" target="kyEuraz-bxoVGQhwH_C7-42" edge="1"><mxGeometry relative="1" as="geometry"><Array as="points"><mxPoint x="-2470" y="350"/></Array></mxGeometry></mxCell><mxCell id="jd7sBL_ZRLo0PxZRcB78-59" style="edgeStyle=orthogonalEdgeStyle;rounded=0;orthogonalLoop=1;jettySize=auto;html=1;endArrow=oval;endFill=1;" parent="WIyWlLk6GJQsqaUBKTNV-1" source="eIus6dDAk17Qi3Uw3q87-36" target="eIus6dDAk17Qi3Uw3q87-97" edge="1"><mxGeometry relative="1" as="geometry"><Array as="points"><mxPoint x="-2470" y="800"/></Array></mxGeometry></mxCell><mxCell id="jd7sBL_ZRLo0PxZRcB78-60" value="AddTime" style="edgeLabel;html=1;align=center;verticalAlign=middle;resizable=0;points=[];" parent="jd7sBL_ZRLo0PxZRcB78-59" vertex="1" connectable="0"><mxGeometry x="0.9495" y="-4" relative="1" as="geometry"><mxPoint x="8" y="3" as="offset"/></mxGeometry></mxCell><mxCell id="eIus6dDAk17Qi3Uw3q87-36" value="&lt;span style=&quot;font-weight: 400;&quot;&gt;TimeGainCE&lt;/span&gt;" style="swimlane;fontStyle=1;align=center;verticalAlign=top;childLayout=stackLayout;horizontal=1;startSize=26;horizontalStack=0;resizeParent=1;resizeParentMax=0;resizeLast=0;collapsible=1;marginBottom=0;whiteSpace=wrap;html=1;" parent="WIyWlLk6GJQsqaUBKTNV-1" vertex="1"><mxGeometry x="-2580" y="360" width="220" height="130" as="geometry"><mxRectangle x="-450" y="143" width="140" height="30" as="alternateBounds"/></mxGeometry></mxCell><mxCell id="eIus6dDAk17Qi3Uw3q87-37" value="+ amountOfTimeToGain: int" style="text;strokeColor=none;fillColor=none;align=left;verticalAlign=top;spacingLeft=4;spacingRight=4;overflow=hidden;rotatable=0;points=[[0,0.5],[1,0.5]];portConstraint=eastwest;whiteSpace=wrap;html=1;" parent="eIus6dDAk17Qi3Uw3q87-36" vertex="1"><mxGeometry y="26" width="220" height="24" as="geometry"/></mxCell><mxCell id="eIus6dDAk17Qi3Uw3q87-38" value="" style="line;strokeWidth=1;fillColor=none;align=left;verticalAlign=middle;spacingTop=-1;spacingLeft=3;spacingRight=3;rotatable=0;labelPosition=right;points=[];portConstraint=eastwest;strokeColor=inherit;" parent="eIus6dDAk17Qi3Uw3q87-36" vertex="1"><mxGeometry y="50" width="220" height="8" as="geometry"/></mxCell><mxCell id="eIus6dDAk17Qi3Uw3q87-39" value="+ override Execute(): void" style="text;strokeColor=none;fillColor=none;align=left;verticalAlign=top;spacingLeft=4;spacingRight=4;overflow=hidden;rotatable=0;points=[[0,0.5],[1,0.5]];portConstraint=eastwest;whiteSpace=wrap;html=1;" parent="eIus6dDAk17Qi3Uw3q87-36" vertex="1"><mxGeometry y="58" width="220" height="26" as="geometry"/></mxCell><mxCell id="jd7sBL_ZRLo0PxZRcB78-19" value="+ override ExecuteDoubled(): void" style="text;strokeColor=none;fillColor=none;align=left;verticalAlign=top;spacingLeft=4;spacingRight=4;overflow=hidden;rotatable=0;points=[[0,0.5],[1,0.5]];portConstraint=eastwest;whiteSpace=wrap;html=1;" parent="eIus6dDAk17Qi3Uw3q87-36" vertex="1"><mxGeometry y="84" width="220" height="46" as="geometry"/></mxCell><mxCell id="eIus6dDAk17Qi3Uw3q87-49" style="edgeStyle=orthogonalEdgeStyle;rounded=0;orthogonalLoop=1;jettySize=auto;html=1;" parent="WIyWlLk6GJQsqaUBKTNV-1" source="eIus6dDAk17Qi3Uw3q87-41" target="dDIwDJEJSTGHqXr8lB01-2" edge="1"><mxGeometry relative="1" as="geometry"><Array as="points"><mxPoint x="315" y="350"/></Array></mxGeometry></mxCell><mxCell id="eIus6dDAk17Qi3Uw3q87-41" value="ActionCard" style="swimlane;fontStyle=0;childLayout=stackLayout;horizontal=1;startSize=26;fillColor=none;horizontalStack=0;resizeParent=1;resizeParentMax=0;resizeLast=0;collapsible=1;marginBottom=0;whiteSpace=wrap;html=1;" parent="WIyWlLk6GJQsqaUBKTNV-1" vertex="1"><mxGeometry x="240" y="254" width="150" height="52" as="geometry"/></mxCell><mxCell id="FwULBE35Prdf7N5nhsue-1" value="SO" style="ellipse;shape=umlEntity;whiteSpace=wrap;html=1;fontSize=16;" parent="WIyWlLk6GJQsqaUBKTNV-1" vertex="1"><mxGeometry x="83" y="254" width="80" height="80" as="geometry"/></mxCell><mxCell id="eIus6dDAk17Qi3Uw3q87-51" style="edgeStyle=orthogonalEdgeStyle;rounded=0;orthogonalLoop=1;jettySize=auto;html=1;" parent="WIyWlLk6GJQsqaUBKTNV-1" source="eIus6dDAk17Qi3Uw3q87-50" target="dDIwDJEJSTGHqXr8lB01-2" edge="1"><mxGeometry relative="1" as="geometry"><Array as="points"><mxPoint x="475" y="350"/></Array></mxGeometry></mxCell><mxCell id="eIus6dDAk17Qi3Uw3q87-50" value="ItemCard" style="swimlane;fontStyle=0;childLayout=stackLayout;horizontal=1;startSize=26;fillColor=none;horizontalStack=0;resizeParent=1;resizeParentMax=0;resizeLast=0;collapsible=1;marginBottom=0;whiteSpace=wrap;html=1;spacingLeft=1;" parent="WIyWlLk6GJQsqaUBKTNV-1" vertex="1"><mxGeometry x="400" y="253" width="205" height="86" as="geometry"><mxRectangle x="400" y="64" width="90" height="30" as="alternateBounds"/></mxGeometry></mxCell><mxCell id="eIus6dDAk17Qi3Uw3q87-52" value="- amountOfTurnsToRemain: int" style="text;html=1;align=left;verticalAlign=middle;resizable=0;points=[];autosize=1;strokeColor=none;fillColor=none;spacingLeft=2;" parent="eIus6dDAk17Qi3Uw3q87-50" vertex="1"><mxGeometry y="26" width="205" height="30" as="geometry"/></mxCell><mxCell id="jd7sBL_ZRLo0PxZRcB78-46" value="- gameStateToExecute: GameState" style="text;html=1;align=left;verticalAlign=middle;resizable=0;points=[];autosize=1;strokeColor=none;fillColor=none;spacingLeft=2;" parent="eIus6dDAk17Qi3Uw3q87-50" vertex="1"><mxGeometry y="56" width="205" height="30" as="geometry"/></mxCell><mxCell id="eIus6dDAk17Qi3Uw3q87-53" value="SO" style="ellipse;shape=umlEntity;whiteSpace=wrap;html=1;fontSize=16;" parent="WIyWlLk6GJQsqaUBKTNV-1" vertex="1"><mxGeometry x="275" y="174" width="80" height="80" as="geometry"/></mxCell><mxCell id="eIus6dDAk17Qi3Uw3q87-54" value="SO" style="ellipse;shape=umlEntity;whiteSpace=wrap;html=1;fontSize=16;" parent="WIyWlLk6GJQsqaUBKTNV-1" vertex="1"><mxGeometry x="445" y="173" width="80" height="80" as="geometry"/></mxCell><mxCell id="eIus6dDAk17Qi3Uw3q87-59" style="edgeStyle=orthogonalEdgeStyle;rounded=0;orthogonalLoop=1;jettySize=auto;html=1;" parent="WIyWlLk6GJQsqaUBKTNV-1" source="eIus6dDAk17Qi3Uw3q87-55" target="kyEuraz-bxoVGQhwH_C7-42" edge="1"><mxGeometry relative="1" as="geometry"><Array as="points"><mxPoint x="-2710" y="350"/></Array></mxGeometry></mxCell><mxCell id="jd7sBL_ZRLo0PxZRcB78-56" style="edgeStyle=orthogonalEdgeStyle;rounded=0;orthogonalLoop=1;jettySize=auto;html=1;endArrow=oval;endFill=1;" parent="WIyWlLk6GJQsqaUBKTNV-1" source="eIus6dDAk17Qi3Uw3q87-55" target="dDIwDJEJSTGHqXr8lB01-23" edge="1"><mxGeometry relative="1" as="geometry"><Array as="points"><mxPoint x="-2710" y="830"/></Array></mxGeometry></mxCell><mxCell id="jd7sBL_ZRLo0PxZRcB78-58" value="IncreaseRemainCounter" style="edgeLabel;html=1;align=center;verticalAlign=middle;resizable=0;points=[];" parent="jd7sBL_ZRLo0PxZRcB78-56" vertex="1" connectable="0"><mxGeometry x="0.9013" y="2" relative="1" as="geometry"><mxPoint as="offset"/></mxGeometry></mxCell><mxCell id="eIus6dDAk17Qi3Uw3q87-55" value="&lt;span style=&quot;font-weight: 400;&quot;&gt;IncreaseAllIBoardtemCountersCE&lt;/span&gt;" style="swimlane;fontStyle=1;align=center;verticalAlign=top;childLayout=stackLayout;horizontal=1;startSize=26;horizontalStack=0;resizeParent=1;resizeParentMax=0;resizeLast=0;collapsible=1;marginBottom=0;whiteSpace=wrap;html=1;" parent="WIyWlLk6GJQsqaUBKTNV-1" vertex="1"><mxGeometry x="-2820" y="360" width="220" height="130" as="geometry"><mxRectangle x="-450" y="143" width="140" height="30" as="alternateBounds"/></mxGeometry></mxCell><mxCell id="eIus6dDAk17Qi3Uw3q87-56" value="+ amountOfTurnsToLastLonger: int" style="text;strokeColor=none;fillColor=none;align=left;verticalAlign=top;spacingLeft=4;spacingRight=4;overflow=hidden;rotatable=0;points=[[0,0.5],[1,0.5]];portConstraint=eastwest;whiteSpace=wrap;html=1;" parent="eIus6dDAk17Qi3Uw3q87-55" vertex="1"><mxGeometry y="26" width="220" height="24" as="geometry"/></mxCell><mxCell id="eIus6dDAk17Qi3Uw3q87-57" value="" style="line;strokeWidth=1;fillColor=none;align=left;verticalAlign=middle;spacingTop=-1;spacingLeft=3;spacingRight=3;rotatable=0;labelPosition=right;points=[];portConstraint=eastwest;strokeColor=inherit;" parent="eIus6dDAk17Qi3Uw3q87-55" vertex="1"><mxGeometry y="50" width="220" height="8" as="geometry"/></mxCell><mxCell id="eIus6dDAk17Qi3Uw3q87-58" value="+ override Execute(): void" style="text;strokeColor=none;fillColor=none;align=left;verticalAlign=top;spacingLeft=4;spacingRight=4;overflow=hidden;rotatable=0;points=[[0,0.5],[1,0.5]];portConstraint=eastwest;whiteSpace=wrap;html=1;" parent="eIus6dDAk17Qi3Uw3q87-55" vertex="1"><mxGeometry y="58" width="220" height="26" as="geometry"/></mxCell><mxCell id="jd7sBL_ZRLo0PxZRcB78-25" value="+ override ExecuteDoubled(): void" style="text;strokeColor=none;fillColor=none;align=left;verticalAlign=top;spacingLeft=4;spacingRight=4;overflow=hidden;rotatable=0;points=[[0,0.5],[1,0.5]];portConstraint=eastwest;whiteSpace=wrap;html=1;" parent="eIus6dDAk17Qi3Uw3q87-55" vertex="1"><mxGeometry y="84" width="220" height="46" as="geometry"/></mxCell><mxCell id="eIus6dDAk17Qi3Uw3q87-64" style="edgeStyle=orthogonalEdgeStyle;rounded=0;orthogonalLoop=1;jettySize=auto;html=1;entryX=-0.015;entryY=0.101;entryDx=0;entryDy=0;entryPerimeter=0;" parent="WIyWlLk6GJQsqaUBKTNV-1" source="eIus6dDAk17Qi3Uw3q87-60" target="kyEuraz-bxoVGQhwH_C7-42" edge="1"><mxGeometry relative="1" as="geometry"><Array as="points"><mxPoint x="-2950" y="350"/><mxPoint x="-460" y="350"/><mxPoint x="-460" y="348"/></Array></mxGeometry></mxCell><mxCell id="jd7sBL_ZRLo0PxZRcB78-54" style="edgeStyle=orthogonalEdgeStyle;rounded=0;orthogonalLoop=1;jettySize=auto;html=1;endArrow=oval;endFill=1;" parent="WIyWlLk6GJQsqaUBKTNV-1" source="eIus6dDAk17Qi3Uw3q87-60" target="eIus6dDAk17Qi3Uw3q87-97" edge="1"><mxGeometry relative="1" as="geometry"><Array as="points"><mxPoint x="-2950" y="770"/></Array></mxGeometry></mxCell><mxCell id="jd7sBL_ZRLo0PxZRcB78-55" value="IncreaseCardsToDraw" style="edgeLabel;html=1;align=center;verticalAlign=middle;resizable=0;points=[];" parent="jd7sBL_ZRLo0PxZRcB78-54" vertex="1" connectable="0"><mxGeometry x="0.9193" y="2" relative="1" as="geometry"><mxPoint x="24" y="-1" as="offset"/></mxGeometry></mxCell><mxCell id="eIus6dDAk17Qi3Uw3q87-60" value="&lt;span style=&quot;font-weight: 400;&quot;&gt;IncreaseCardsDrawnCE&lt;/span&gt;" style="swimlane;fontStyle=1;align=center;verticalAlign=top;childLayout=stackLayout;horizontal=1;startSize=26;horizontalStack=0;resizeParent=1;resizeParentMax=0;resizeLast=0;collapsible=1;marginBottom=0;whiteSpace=wrap;html=1;" parent="WIyWlLk6GJQsqaUBKTNV-1" vertex="1"><mxGeometry x="-3060" y="360" width="220" height="130" as="geometry"><mxRectangle x="-450" y="143" width="140" height="30" as="alternateBounds"/></mxGeometry></mxCell><mxCell id="eIus6dDAk17Qi3Uw3q87-61" value="+ additionalAmountOfCardsToDraw: int" style="text;strokeColor=none;fillColor=none;align=left;verticalAlign=top;spacingLeft=4;spacingRight=4;overflow=hidden;rotatable=0;points=[[0,0.5],[1,0.5]];portConstraint=eastwest;whiteSpace=wrap;html=1;" parent="eIus6dDAk17Qi3Uw3q87-60" vertex="1"><mxGeometry y="26" width="220" height="24" as="geometry"/></mxCell><mxCell id="eIus6dDAk17Qi3Uw3q87-62" value="" style="line;strokeWidth=1;fillColor=none;align=left;verticalAlign=middle;spacingTop=-1;spacingLeft=3;spacingRight=3;rotatable=0;labelPosition=right;points=[];portConstraint=eastwest;strokeColor=inherit;" parent="eIus6dDAk17Qi3Uw3q87-60" vertex="1"><mxGeometry y="50" width="220" height="8" as="geometry"/></mxCell><mxCell id="eIus6dDAk17Qi3Uw3q87-63" value="+ override Execute(): void" style="text;strokeColor=none;fillColor=none;align=left;verticalAlign=top;spacingLeft=4;spacingRight=4;overflow=hidden;rotatable=0;points=[[0,0.5],[1,0.5]];portConstraint=eastwest;whiteSpace=wrap;html=1;" parent="eIus6dDAk17Qi3Uw3q87-60" vertex="1"><mxGeometry y="58" width="220" height="26" as="geometry"/></mxCell><mxCell id="jd7sBL_ZRLo0PxZRcB78-26" value="+ override ExecuteDoubled(): void" style="text;strokeColor=none;fillColor=none;align=left;verticalAlign=top;spacingLeft=4;spacingRight=4;overflow=hidden;rotatable=0;points=[[0,0.5],[1,0.5]];portConstraint=eastwest;whiteSpace=wrap;html=1;" parent="eIus6dDAk17Qi3Uw3q87-60" vertex="1"><mxGeometry y="84" width="220" height="46" as="geometry"/></mxCell><mxCell id="eIus6dDAk17Qi3Uw3q87-70" style="edgeStyle=orthogonalEdgeStyle;rounded=0;orthogonalLoop=1;jettySize=auto;html=1;" parent="WIyWlLk6GJQsqaUBKTNV-1" source="eIus6dDAk17Qi3Uw3q87-66" target="kyEuraz-bxoVGQhwH_C7-42" edge="1"><mxGeometry relative="1" as="geometry"><Array as="points"><mxPoint x="-3190" y="350"/></Array></mxGeometry></mxCell><mxCell id="jd7sBL_ZRLo0PxZRcB78-51" style="edgeStyle=orthogonalEdgeStyle;rounded=0;orthogonalLoop=1;jettySize=auto;html=1;endArrow=oval;endFill=1;" parent="WIyWlLk6GJQsqaUBKTNV-1" source="eIus6dDAk17Qi3Uw3q87-66" target="eIus6dDAk17Qi3Uw3q87-97" edge="1"><mxGeometry relative="1" as="geometry"><Array as="points"><mxPoint x="-3190" y="680"/><mxPoint x="-3730" y="680"/><mxPoint x="-3730" y="750"/></Array></mxGeometry></mxCell><mxCell id="jd7sBL_ZRLo0PxZRcB78-52" value="PreventDiscard" style="edgeLabel;html=1;align=center;verticalAlign=middle;resizable=0;points=[];" parent="jd7sBL_ZRLo0PxZRcB78-51" vertex="1" connectable="0"><mxGeometry x="0.6829" y="2" relative="1" as="geometry"><mxPoint y="13" as="offset"/></mxGeometry></mxCell><mxCell id="eIus6dDAk17Qi3Uw3q87-66" value="&lt;span style=&quot;font-weight: 400;&quot;&gt;PreventDiscardCE&lt;/span&gt;" style="swimlane;fontStyle=1;align=center;verticalAlign=top;childLayout=stackLayout;horizontal=1;startSize=26;horizontalStack=0;resizeParent=1;resizeParentMax=0;resizeLast=0;collapsible=1;marginBottom=0;whiteSpace=wrap;html=1;" parent="WIyWlLk6GJQsqaUBKTNV-1" vertex="1"><mxGeometry x="-3300" y="360" width="220" height="106" as="geometry"><mxRectangle x="-450" y="143" width="140" height="30" as="alternateBounds"/></mxGeometry></mxCell><mxCell id="eIus6dDAk17Qi3Uw3q87-68" value="" style="line;strokeWidth=1;fillColor=none;align=left;verticalAlign=middle;spacingTop=-1;spacingLeft=3;spacingRight=3;rotatable=0;labelPosition=right;points=[];portConstraint=eastwest;strokeColor=inherit;" parent="eIus6dDAk17Qi3Uw3q87-66" vertex="1"><mxGeometry y="26" width="220" height="8" as="geometry"/></mxCell><mxCell id="eIus6dDAk17Qi3Uw3q87-69" value="+ override Execute(): void" style="text;strokeColor=none;fillColor=none;align=left;verticalAlign=top;spacingLeft=4;spacingRight=4;overflow=hidden;rotatable=0;points=[[0,0.5],[1,0.5]];portConstraint=eastwest;whiteSpace=wrap;html=1;" parent="eIus6dDAk17Qi3Uw3q87-66" vertex="1"><mxGeometry y="34" width="220" height="26" as="geometry"/></mxCell><mxCell id="jd7sBL_ZRLo0PxZRcB78-27" value="+ override ExecuteDoubled(): void" style="text;strokeColor=none;fillColor=none;align=left;verticalAlign=top;spacingLeft=4;spacingRight=4;overflow=hidden;rotatable=0;points=[[0,0.5],[1,0.5]];portConstraint=eastwest;whiteSpace=wrap;html=1;" parent="eIus6dDAk17Qi3Uw3q87-66" vertex="1"><mxGeometry y="60" width="220" height="46" as="geometry"/></mxCell><mxCell id="eIus6dDAk17Qi3Uw3q87-78" style="edgeStyle=orthogonalEdgeStyle;rounded=0;orthogonalLoop=1;jettySize=auto;html=1;" parent="WIyWlLk6GJQsqaUBKTNV-1" source="eIus6dDAk17Qi3Uw3q87-74" target="kyEuraz-bxoVGQhwH_C7-42" edge="1"><mxGeometry relative="1" as="geometry"><Array as="points"><mxPoint x="-3430" y="350"/></Array></mxGeometry></mxCell><mxCell id="jd7sBL_ZRLo0PxZRcB78-48" style="edgeStyle=orthogonalEdgeStyle;rounded=0;orthogonalLoop=1;jettySize=auto;html=1;endArrow=oval;endFill=1;" parent="WIyWlLk6GJQsqaUBKTNV-1" source="eIus6dDAk17Qi3Uw3q87-74" target="eIus6dDAk17Qi3Uw3q87-97" edge="1"><mxGeometry relative="1" as="geometry"><Array as="points"><mxPoint x="-3430" y="670"/><mxPoint x="-3860" y="670"/></Array></mxGeometry></mxCell><mxCell id="jd7sBL_ZRLo0PxZRcB78-49" value="AddTimeEachTurn" style="edgeLabel;html=1;align=center;verticalAlign=middle;resizable=0;points=[];" parent="jd7sBL_ZRLo0PxZRcB78-48" vertex="1" connectable="0"><mxGeometry x="0.6259" y="-2" relative="1" as="geometry"><mxPoint as="offset"/></mxGeometry></mxCell><mxCell id="eIus6dDAk17Qi3Uw3q87-74" value="&lt;span style=&quot;font-weight: 400;&quot;&gt;TimeBuffWhileOnBoardCE&lt;/span&gt;" style="swimlane;fontStyle=1;align=center;verticalAlign=top;childLayout=stackLayout;horizontal=1;startSize=26;horizontalStack=0;resizeParent=1;resizeParentMax=0;resizeLast=0;collapsible=1;marginBottom=0;whiteSpace=wrap;html=1;" parent="WIyWlLk6GJQsqaUBKTNV-1" vertex="1"><mxGeometry x="-3540" y="360" width="220" height="130" as="geometry"><mxRectangle x="-450" y="143" width="140" height="30" as="alternateBounds"/></mxGeometry></mxCell><mxCell id="eIus6dDAk17Qi3Uw3q87-75" value="+ amountOfTimeToAddEachTurn: int" style="text;strokeColor=none;fillColor=none;align=left;verticalAlign=top;spacingLeft=4;spacingRight=4;overflow=hidden;rotatable=0;points=[[0,0.5],[1,0.5]];portConstraint=eastwest;whiteSpace=wrap;html=1;" parent="eIus6dDAk17Qi3Uw3q87-74" vertex="1"><mxGeometry y="26" width="220" height="24" as="geometry"/></mxCell><mxCell id="eIus6dDAk17Qi3Uw3q87-76" value="" style="line;strokeWidth=1;fillColor=none;align=left;verticalAlign=middle;spacingTop=-1;spacingLeft=3;spacingRight=3;rotatable=0;labelPosition=right;points=[];portConstraint=eastwest;strokeColor=inherit;" parent="eIus6dDAk17Qi3Uw3q87-74" vertex="1"><mxGeometry y="50" width="220" height="8" as="geometry"/></mxCell><mxCell id="eIus6dDAk17Qi3Uw3q87-77" value="+ override Execute(): void" style="text;strokeColor=none;fillColor=none;align=left;verticalAlign=top;spacingLeft=4;spacingRight=4;overflow=hidden;rotatable=0;points=[[0,0.5],[1,0.5]];portConstraint=eastwest;whiteSpace=wrap;html=1;" parent="eIus6dDAk17Qi3Uw3q87-74" vertex="1"><mxGeometry y="58" width="220" height="26" as="geometry"/></mxCell><mxCell id="jd7sBL_ZRLo0PxZRcB78-28" value="+ override ExecuteDoubled(): void" style="text;strokeColor=none;fillColor=none;align=left;verticalAlign=top;spacingLeft=4;spacingRight=4;overflow=hidden;rotatable=0;points=[[0,0.5],[1,0.5]];portConstraint=eastwest;whiteSpace=wrap;html=1;" parent="eIus6dDAk17Qi3Uw3q87-74" vertex="1"><mxGeometry y="84" width="220" height="46" as="geometry"/></mxCell><mxCell id="eIus6dDAk17Qi3Uw3q87-79" value="&lt;p style=&quot;margin:0px;margin-top:4px;text-align:center;&quot;&gt;&lt;i&gt;&amp;lt;&amp;lt;enum&amp;gt;&amp;gt;&lt;/i&gt;&lt;br&gt;&lt;b&gt;GameState&lt;/b&gt;&lt;/p&gt;&lt;hr size=&quot;1&quot;&gt;&lt;p style=&quot;margin:0px;margin-left:4px;&quot;&gt;+ TURN_START&lt;br&gt;&lt;/p&gt;&lt;p style=&quot;margin:0px;margin-left:4px;&quot;&gt;+ PLAY_CARDS&lt;br&gt;&lt;/p&gt;&lt;p style=&quot;margin:0px;margin-left:4px;&quot;&gt;+ TURN_END&lt;/p&gt;&lt;p style=&quot;margin:0px;margin-left:4px;&quot;&gt;+ END_OF_TURN_EFFECT_EXECUTION&lt;/p&gt;&lt;p style=&quot;margin:0px;margin-left:4px;&quot;&gt;+ GAME_OVER_CHECK&lt;/p&gt;&lt;p style=&quot;margin:0px;margin-left:4px;&quot;&gt;+ GAME_OVER&lt;/p&gt;&lt;p style=&quot;margin:0px;margin-left:4px;&quot;&gt;+ CARDS_SWAP&lt;/p&gt;" style="verticalAlign=top;align=left;overflow=fill;fontSize=12;fontFamily=Helvetica;html=1;whiteSpace=wrap;" parent="WIyWlLk6GJQsqaUBKTNV-1" vertex="1"><mxGeometry x="-4280" y="309" width="250" height="150" as="geometry"/></mxCell><mxCell id="eIus6dDAk17Qi3Uw3q87-85" style="edgeStyle=orthogonalEdgeStyle;rounded=0;orthogonalLoop=1;jettySize=auto;html=1;dashed=1;" parent="WIyWlLk6GJQsqaUBKTNV-1" source="eIus6dDAk17Qi3Uw3q87-80" target="eIus6dDAk17Qi3Uw3q87-79" edge="1"><mxGeometry relative="1" as="geometry"/></mxCell><mxCell id="eIus6dDAk17Qi3Uw3q87-80" value="Game" style="swimlane;fontStyle=0;align=center;verticalAlign=top;childLayout=stackLayout;horizontal=1;startSize=26;horizontalStack=0;resizeParent=1;resizeLast=0;collapsible=1;marginBottom=0;rounded=0;shadow=0;strokeWidth=1;" parent="WIyWlLk6GJQsqaUBKTNV-1" vertex="1"><mxGeometry x="-3970" y="298" width="160" height="172" as="geometry"><mxRectangle x="550" y="140" width="160" height="26" as="alternateBounds"/></mxGeometry></mxCell><mxCell id="eIus6dDAk17Qi3Uw3q87-81" value="- currentGameState:&#10;GameState" style="text;align=left;verticalAlign=top;spacingLeft=4;spacingRight=4;overflow=hidden;rotatable=0;points=[[0,0.5],[1,0.5]];portConstraint=eastwest;rounded=0;shadow=0;html=0;" parent="eIus6dDAk17Qi3Uw3q87-80" vertex="1"><mxGeometry y="26" width="160" height="44" as="geometry"/></mxCell><mxCell id="eIus6dDAk17Qi3Uw3q87-82" value="- elapsedTurns: int" style="text;align=left;verticalAlign=top;spacingLeft=4;spacingRight=4;overflow=hidden;rotatable=0;points=[[0,0.5],[1,0.5]];portConstraint=eastwest;" parent="eIus6dDAk17Qi3Uw3q87-80" vertex="1"><mxGeometry y="70" width="160" height="26" as="geometry"/></mxCell><mxCell id="eIus6dDAk17Qi3Uw3q87-83" value="- fishHasBeenScaledThis&#10;OrLastTurn: bool" style="text;align=left;verticalAlign=top;spacingLeft=4;spacingRight=4;overflow=hidden;rotatable=0;points=[[0,0.5],[1,0.5]];portConstraint=eastwest;rounded=0;shadow=0;html=0;" parent="eIus6dDAk17Qi3Uw3q87-80" vertex="1"><mxGeometry y="96" width="160" height="38" as="geometry"/></mxCell><mxCell id="jd7sBL_ZRLo0PxZRcB78-36" value="- remainingTimeAvailable &#10;ThisTurn: UnitTime" style="text;align=left;verticalAlign=top;spacingLeft=4;spacingRight=4;overflow=hidden;rotatable=0;points=[[0,0.5],[1,0.5]];portConstraint=eastwest;rounded=0;shadow=0;html=0;" parent="eIus6dDAk17Qi3Uw3q87-80" vertex="1"><mxGeometry y="134" width="160" height="38" as="geometry"/></mxCell><mxCell id="eIus6dDAk17Qi3Uw3q87-87" value="EffectAssembly" style="swimlane;fontStyle=0;align=center;verticalAlign=top;childLayout=stackLayout;horizontal=1;startSize=26;horizontalStack=0;resizeParent=1;resizeLast=0;collapsible=1;marginBottom=0;rounded=0;shadow=0;strokeWidth=1;" parent="WIyWlLk6GJQsqaUBKTNV-1" vertex="1"><mxGeometry x="-4250" y="525" width="160" height="60" as="geometry"><mxRectangle x="550" y="140" width="160" height="26" as="alternateBounds"/></mxGeometry></mxCell><mxCell id="eIus6dDAk17Qi3Uw3q87-88" value="- effects: List&lt;Effect&gt;" style="text;align=left;verticalAlign=top;spacingLeft=4;spacingRight=4;overflow=hidden;rotatable=0;points=[[0,0.5],[1,0.5]];portConstraint=eastwest;rounded=0;shadow=0;html=0;" parent="eIus6dDAk17Qi3Uw3q87-87" vertex="1"><mxGeometry y="26" width="160" height="26" as="geometry"/></mxCell><mxCell id="eIus6dDAk17Qi3Uw3q87-89" value="" style="line;html=1;strokeWidth=1;align=left;verticalAlign=middle;spacingTop=-1;spacingLeft=3;spacingRight=3;rotatable=0;labelPosition=right;points=[];portConstraint=eastwest;" parent="eIus6dDAk17Qi3Uw3q87-87" vertex="1"><mxGeometry y="52" width="160" height="8" as="geometry"/></mxCell><mxCell id="eIus6dDAk17Qi3Uw3q87-96" style="edgeStyle=orthogonalEdgeStyle;rounded=0;orthogonalLoop=1;jettySize=auto;html=1;dashed=1;" parent="WIyWlLk6GJQsqaUBKTNV-1" source="eIus6dDAk17Qi3Uw3q87-90" target="eIus6dDAk17Qi3Uw3q87-87" edge="1"><mxGeometry relative="1" as="geometry"/></mxCell><mxCell id="eIus6dDAk17Qi3Uw3q87-90" value="EffectAssemblyService" style="swimlane;fontStyle=0;align=center;verticalAlign=top;childLayout=stackLayout;horizontal=1;startSize=26;horizontalStack=0;resizeParent=1;resizeLast=0;collapsible=1;marginBottom=0;rounded=0;shadow=0;strokeWidth=1;" parent="WIyWlLk6GJQsqaUBKTNV-1" vertex="1"><mxGeometry x="-4250" y="726" width="160" height="138" as="geometry"><mxRectangle x="550" y="140" width="160" height="26" as="alternateBounds"/></mxGeometry></mxCell><mxCell id="eIus6dDAk17Qi3Uw3q87-91" value="- assembly: EffectAssembly" style="text;align=left;verticalAlign=top;spacingLeft=4;spacingRight=4;overflow=hidden;rotatable=0;points=[[0,0.5],[1,0.5]];portConstraint=eastwest;rounded=0;shadow=0;html=0;" parent="eIus6dDAk17Qi3Uw3q87-90" vertex="1"><mxGeometry y="26" width="160" height="26" as="geometry"/></mxCell><mxCell id="eIus6dDAk17Qi3Uw3q87-92" value="" style="line;html=1;strokeWidth=1;align=left;verticalAlign=middle;spacingTop=-1;spacingLeft=3;spacingRight=3;rotatable=0;labelPosition=right;points=[];portConstraint=eastwest;" parent="eIus6dDAk17Qi3Uw3q87-90" vertex="1"><mxGeometry y="52" width="160" height="8" as="geometry"/></mxCell><mxCell id="eIus6dDAk17Qi3Uw3q87-93" value="+ Add(effect: Effect): void" style="text;align=left;verticalAlign=top;spacingLeft=4;spacingRight=4;overflow=hidden;rotatable=0;points=[[0,0.5],[1,0.5]];portConstraint=eastwest;" parent="eIus6dDAk17Qi3Uw3q87-90" vertex="1"><mxGeometry y="60" width="160" height="26" as="geometry"/></mxCell><mxCell id="eIus6dDAk17Qi3Uw3q87-94" value="+ ExecuteAll(): void" style="text;align=left;verticalAlign=top;spacingLeft=4;spacingRight=4;overflow=hidden;rotatable=0;points=[[0,0.5],[1,0.5]];portConstraint=eastwest;" parent="eIus6dDAk17Qi3Uw3q87-90" vertex="1"><mxGeometry y="86" width="160" height="26" as="geometry"/></mxCell><mxCell id="eIus6dDAk17Qi3Uw3q87-95" value="- Clear(): void" style="text;align=left;verticalAlign=top;spacingLeft=4;spacingRight=4;overflow=hidden;rotatable=0;points=[[0,0.5],[1,0.5]];portConstraint=eastwest;" parent="eIus6dDAk17Qi3Uw3q87-90" vertex="1"><mxGeometry y="112" width="160" height="26" as="geometry"/></mxCell><mxCell id="eIus6dDAk17Qi3Uw3q87-103" style="edgeStyle=orthogonalEdgeStyle;rounded=0;orthogonalLoop=1;jettySize=auto;html=1;dashed=1;" parent="WIyWlLk6GJQsqaUBKTNV-1" source="eIus6dDAk17Qi3Uw3q87-97" target="eIus6dDAk17Qi3Uw3q87-80" edge="1"><mxGeometry relative="1" as="geometry"/></mxCell><mxCell id="eIus6dDAk17Qi3Uw3q87-97" value="GameService" style="swimlane;fontStyle=2;align=center;verticalAlign=top;childLayout=stackLayout;horizontal=1;startSize=26;horizontalStack=0;resizeParent=1;resizeLast=0;collapsible=1;marginBottom=0;rounded=0;shadow=0;strokeWidth=1;" parent="WIyWlLk6GJQsqaUBKTNV-1" vertex="1"><mxGeometry x="-3970" y="740" width="160" height="390" as="geometry"><mxRectangle x="230" y="140" width="160" height="26" as="alternateBounds"/></mxGeometry></mxCell><mxCell id="eIus6dDAk17Qi3Uw3q87-104" value="- currentGame: Game" style="text;align=left;verticalAlign=top;spacingLeft=4;spacingRight=4;overflow=hidden;rotatable=0;points=[[0,0.5],[1,0.5]];portConstraint=eastwest;" parent="eIus6dDAk17Qi3Uw3q87-97" vertex="1"><mxGeometry y="26" width="160" height="26" as="geometry"/></mxCell><mxCell id="eIus6dDAk17Qi3Uw3q87-98" value="" style="line;html=1;strokeWidth=1;align=left;verticalAlign=middle;spacingTop=-1;spacingLeft=3;spacingRight=3;rotatable=0;labelPosition=right;points=[];portConstraint=eastwest;" parent="eIus6dDAk17Qi3Uw3q87-97" vertex="1"><mxGeometry y="52" width="160" height="8" as="geometry"/></mxCell><mxCell id="eIus6dDAk17Qi3Uw3q87-99" value="+ EndTurn(): void" style="text;align=left;verticalAlign=top;spacingLeft=4;spacingRight=4;overflow=hidden;rotatable=0;points=[[0,0.5],[1,0.5]];portConstraint=eastwest;" parent="eIus6dDAk17Qi3Uw3q87-97" vertex="1"><mxGeometry y="60" width="160" height="26" as="geometry"/></mxCell><mxCell id="jd7sBL_ZRLo0PxZRcB78-38" value="+ RestoreTime(): void" style="text;align=left;verticalAlign=top;spacingLeft=4;spacingRight=4;overflow=hidden;rotatable=0;points=[[0,0.5],[1,0.5]];portConstraint=eastwest;" parent="eIus6dDAk17Qi3Uw3q87-97" vertex="1"><mxGeometry y="86" width="160" height="26" as="geometry"/></mxCell><mxCell id="jd7sBL_ZRLo0PxZRcB78-47" value="+ AddTime(amount: TimeUni&#10;t): void" style="text;align=left;verticalAlign=top;spacingLeft=4;spacingRight=4;overflow=hidden;rotatable=0;points=[[0,0.5],[1,0.5]];portConstraint=eastwest;" parent="eIus6dDAk17Qi3Uw3q87-97" vertex="1"><mxGeometry y="112" width="160" height="48" as="geometry"/></mxCell><mxCell id="jd7sBL_ZRLo0PxZRcB78-50" value="+ PreventDiscardOnTurn &#10;End(): void" style="text;align=left;verticalAlign=top;spacingLeft=4;spacingRight=4;overflow=hidden;rotatable=0;points=[[0,0.5],[1,0.5]];portConstraint=eastwest;" parent="eIus6dDAk17Qi3Uw3q87-97" vertex="1"><mxGeometry y="160" width="160" height="48" as="geometry"/></mxCell><mxCell id="jd7sBL_ZRLo0PxZRcB78-53" value="+ IncreaseCardsToDrawOn &#10;TurnStartByAmount(amount:&#10;int): void" style="text;align=left;verticalAlign=top;spacingLeft=4;spacingRight=4;overflow=hidden;rotatable=0;points=[[0,0.5],[1,0.5]];portConstraint=eastwest;" parent="eIus6dDAk17Qi3Uw3q87-97" vertex="1"><mxGeometry y="208" width="160" height="52" as="geometry"/></mxCell><mxCell id="eIus6dDAk17Qi3Uw3q87-100" value="- CheckIfGameOver(): bool" style="text;align=left;verticalAlign=top;spacingLeft=4;spacingRight=4;overflow=hidden;rotatable=0;points=[[0,0.5],[1,0.5]];portConstraint=eastwest;" parent="eIus6dDAk17Qi3Uw3q87-97" vertex="1"><mxGeometry y="260" width="160" height="26" as="geometry"/></mxCell><mxCell id="eIus6dDAk17Qi3Uw3q87-101" value="- HandleGameOver(): void" style="text;align=left;verticalAlign=top;spacingLeft=4;spacingRight=4;overflow=hidden;rotatable=0;points=[[0,0.5],[1,0.5]];portConstraint=eastwest;" parent="eIus6dDAk17Qi3Uw3q87-97" vertex="1"><mxGeometry y="286" width="160" height="26" as="geometry"/></mxCell><mxCell id="eIus6dDAk17Qi3Uw3q87-102" value="- HandleCardSwaps(): void" style="text;align=left;verticalAlign=top;spacingLeft=4;spacingRight=4;overflow=hidden;rotatable=0;points=[[0,0.5],[1,0.5]];portConstraint=eastwest;" parent="eIus6dDAk17Qi3Uw3q87-97" vertex="1"><mxGeometry y="312" width="160" height="26" as="geometry"/></mxCell><mxCell id="0" value="- StartNewGame(): void" style="text;align=left;verticalAlign=top;spacingLeft=4;spacingRight=4;overflow=hidden;rotatable=0;points=[[0,0.5],[1,0.5]];portConstraint=eastwest;" parent="eIus6dDAk17Qi3Uw3q87-97" vertex="1"><mxGeometry y="338" width="160" height="26" as="geometry"/></mxCell><mxCell id="1" value="- CreateServices(): void" style="text;align=left;verticalAlign=top;spacingLeft=4;spacingRight=4;overflow=hidden;rotatable=0;points=[[0,0.5],[1,0.5]];portConstraint=eastwest;" parent="eIus6dDAk17Qi3Uw3q87-97" vertex="1"><mxGeometry y="364" width="160" height="26" as="geometry"/></mxCell><mxCell id="eIus6dDAk17Qi3Uw3q87-107" style="edgeStyle=orthogonalEdgeStyle;rounded=0;orthogonalLoop=1;jettySize=auto;html=1;" parent="WIyWlLk6GJQsqaUBKTNV-1" source="eIus6dDAk17Qi3Uw3q87-99" target="eIus6dDAk17Qi3Uw3q87-94" edge="1"><mxGeometry relative="1" as="geometry"/></mxCell><mxCell id="jd7sBL_ZRLo0PxZRcB78-9" style="edgeStyle=orthogonalEdgeStyle;rounded=0;orthogonalLoop=1;jettySize=auto;html=1;" parent="WIyWlLk6GJQsqaUBKTNV-1" source="jd7sBL_ZRLo0PxZRcB78-1" target="kyEuraz-bxoVGQhwH_C7-42" edge="1"><mxGeometry relative="1" as="geometry"><Array as="points"><mxPoint x="-3670" y="350"/></Array></mxGeometry></mxCell><mxCell id="jd7sBL_ZRLo0PxZRcB78-34" style="edgeStyle=orthogonalEdgeStyle;rounded=0;orthogonalLoop=1;jettySize=auto;html=1;endArrow=oval;endFill=1;" parent="WIyWlLk6GJQsqaUBKTNV-1" source="jd7sBL_ZRLo0PxZRcB78-1" target="qvqpCW7Pz-lQNfFqi8u_-35" edge="1"><mxGeometry relative="1" as="geometry"><Array as="points"><mxPoint x="-3670" y="1010"/><mxPoint x="-77" y="1010"/></Array></mxGeometry></mxCell><mxCell id="jd7sBL_ZRLo0PxZRcB78-65" value="DoubleEffect" style="edgeLabel;html=1;align=center;verticalAlign=middle;resizable=0;points=[];" parent="jd7sBL_ZRLo0PxZRcB78-34" vertex="1" connectable="0"><mxGeometry x="0.8847" y="-1" relative="1" as="geometry"><mxPoint x="12" y="-1" as="offset"/></mxGeometry></mxCell><mxCell id="jd7sBL_ZRLo0PxZRcB78-1" value="&lt;span style=&quot;font-weight: 400;&quot;&gt;DoubleEffectCE&lt;/span&gt;" style="swimlane;fontStyle=1;align=center;verticalAlign=top;childLayout=stackLayout;horizontal=1;startSize=26;horizontalStack=0;resizeParent=1;resizeParentMax=0;resizeLast=0;collapsible=1;marginBottom=0;whiteSpace=wrap;html=1;" parent="WIyWlLk6GJQsqaUBKTNV-1" vertex="1"><mxGeometry x="-3780" y="360" width="220" height="200" as="geometry"><mxRectangle x="-450" y="143" width="140" height="30" as="alternateBounds"/></mxGeometry></mxCell><mxCell id="jd7sBL_ZRLo0PxZRcB78-2" value="+ handCardTarget: Card" style="text;strokeColor=none;fillColor=none;align=left;verticalAlign=top;spacingLeft=4;spacingRight=4;overflow=hidden;rotatable=0;points=[[0,0.5],[1,0.5]];portConstraint=eastwest;whiteSpace=wrap;html=1;" parent="jd7sBL_ZRLo0PxZRcB78-1" vertex="1"><mxGeometry y="26" width="220" height="24" as="geometry"/></mxCell><mxCell id="jd7sBL_ZRLo0PxZRcB78-5" value="+ affectsAllCardsThisTurn: bool" style="text;strokeColor=none;fillColor=none;align=left;verticalAlign=top;spacingLeft=4;spacingRight=4;overflow=hidden;rotatable=0;points=[[0,0.5],[1,0.5]];portConstraint=eastwest;whiteSpace=wrap;html=1;" parent="jd7sBL_ZRLo0PxZRcB78-1" vertex="1"><mxGeometry y="50" width="220" height="24" as="geometry"/></mxCell><mxCell id="jd7sBL_ZRLo0PxZRcB78-6" value="+ classToAffect: CardClass" style="text;strokeColor=none;fillColor=none;align=left;verticalAlign=top;spacingLeft=4;spacingRight=4;overflow=hidden;rotatable=0;points=[[0,0.5],[1,0.5]];portConstraint=eastwest;whiteSpace=wrap;html=1;" parent="jd7sBL_ZRLo0PxZRcB78-1" vertex="1"><mxGeometry y="74" width="220" height="24" as="geometry"/></mxCell><mxCell id="jd7sBL_ZRLo0PxZRcB78-8" value="+ cardTypeToAffect: [ACTION, ITEM]" style="text;strokeColor=none;fillColor=none;align=left;verticalAlign=top;spacingLeft=4;spacingRight=4;overflow=hidden;rotatable=0;points=[[0,0.5],[1,0.5]];portConstraint=eastwest;whiteSpace=wrap;html=1;" parent="jd7sBL_ZRLo0PxZRcB78-1" vertex="1"><mxGeometry y="98" width="220" height="24" as="geometry"/></mxCell><mxCell id="jd7sBL_ZRLo0PxZRcB78-3" value="" style="line;strokeWidth=1;fillColor=none;align=left;verticalAlign=middle;spacingTop=-1;spacingLeft=3;spacingRight=3;rotatable=0;labelPosition=right;points=[];portConstraint=eastwest;strokeColor=inherit;" parent="jd7sBL_ZRLo0PxZRcB78-1" vertex="1"><mxGeometry y="122" width="220" height="6" as="geometry"/></mxCell><mxCell id="jd7sBL_ZRLo0PxZRcB78-4" value="+ override Execute(): void" style="text;strokeColor=none;fillColor=none;align=left;verticalAlign=top;spacingLeft=4;spacingRight=4;overflow=hidden;rotatable=0;points=[[0,0.5],[1,0.5]];portConstraint=eastwest;whiteSpace=wrap;html=1;" parent="jd7sBL_ZRLo0PxZRcB78-1" vertex="1"><mxGeometry y="128" width="220" height="26" as="geometry"/></mxCell><mxCell id="jd7sBL_ZRLo0PxZRcB78-29" value="+ override ExecuteDoubled(): void" style="text;strokeColor=none;fillColor=none;align=left;verticalAlign=top;spacingLeft=4;spacingRight=4;overflow=hidden;rotatable=0;points=[[0,0.5],[1,0.5]];portConstraint=eastwest;whiteSpace=wrap;html=1;" parent="jd7sBL_ZRLo0PxZRcB78-1" vertex="1"><mxGeometry y="154" width="220" height="46" as="geometry"/></mxCell><mxCell id="jd7sBL_ZRLo0PxZRcB78-39" value="&lt;span style=&quot;font-weight: 400;&quot;&gt;GameBoard&lt;/span&gt;" style="swimlane;fontStyle=1;align=center;verticalAlign=top;childLayout=stackLayout;horizontal=1;startSize=26;horizontalStack=0;resizeParent=1;resizeParentMax=0;resizeLast=0;collapsible=1;marginBottom=0;whiteSpace=wrap;html=1;" parent="WIyWlLk6GJQsqaUBKTNV-1" vertex="1"><mxGeometry x="-250" y="426" width="130" height="102" as="geometry"><mxRectangle x="-450" y="143" width="140" height="30" as="alternateBounds"/></mxGeometry></mxCell><mxCell id="jd7sBL_ZRLo0PxZRcB78-40" value="- cardsOnBoard: List&amp;lt;Card&amp;gt;" style="text;strokeColor=none;fillColor=none;align=left;verticalAlign=top;spacingLeft=4;spacingRight=4;overflow=hidden;rotatable=0;points=[[0,0.5],[1,0.5]];portConstraint=eastwest;whiteSpace=wrap;html=1;" parent="jd7sBL_ZRLo0PxZRcB78-39" vertex="1"><mxGeometry y="26" width="130" height="34" as="geometry"/></mxCell><mxCell id="jd7sBL_ZRLo0PxZRcB78-44" value="- currentFish: Fish" style="text;strokeColor=none;fillColor=none;align=left;verticalAlign=top;spacingLeft=4;spacingRight=4;overflow=hidden;rotatable=0;points=[[0,0.5],[1,0.5]];portConstraint=eastwest;whiteSpace=wrap;html=1;" parent="jd7sBL_ZRLo0PxZRcB78-39" vertex="1"><mxGeometry y="60" width="130" height="34" as="geometry"/></mxCell><mxCell id="jd7sBL_ZRLo0PxZRcB78-41" value="" style="line;strokeWidth=1;fillColor=none;align=left;verticalAlign=middle;spacingTop=-1;spacingLeft=3;spacingRight=3;rotatable=0;labelPosition=right;points=[];portConstraint=eastwest;strokeColor=inherit;" parent="jd7sBL_ZRLo0PxZRcB78-39" vertex="1"><mxGeometry y="94" width="130" height="8" as="geometry"/></mxCell><mxCell id="2" value="" style="shape=document;whiteSpace=wrap;html=1;boundedLbl=1;" parent="WIyWlLk6GJQsqaUBKTNV-1" vertex="1"><mxGeometry x="-1967.5" y="1240" width="735" height="490" as="geometry"/></mxCell><mxCell id="3" value="" style="edgeStyle=orthogonalEdgeStyle;rounded=0;orthogonalLoop=1;jettySize=auto;html=1;" parent="WIyWlLk6GJQsqaUBKTNV-1" source="dDIwDJEJSTGHqXr8lB01-47" target="2" edge="1"><mxGeometry relative="1" as="geometry"/></mxCell></root></mxGraphModel></diagram></mxfile>